<?xml version="1.0" standalone="no"?>
<!DOCTYPE svg PUBLIC "-//W3C//DTD SVG 1.1//EN" "http://www.w3.org/Graphics/SVG/1.1/DTD/svg11.dtd" >
<svg xmlns="http://www.w3.org/2000/svg">
<metadata></metadata>
<defs>
<font id="birdy_gameregular" horiz-adv-x="1163" >
<font-face units-per-em="2048" ascent="1638" descent="-410" />
<missing-glyph horiz-adv-x="409" />
<glyph horiz-adv-x="0" />
<glyph unicode="&#xd;" horiz-adv-x="409" />
<glyph unicode=" "  horiz-adv-x="409" />
<glyph unicode="&#x09;" horiz-adv-x="409" />
<glyph unicode="&#xa0;" horiz-adv-x="409" />
<glyph unicode="!" horiz-adv-x="653" d="M0 1221q0 74 42 123t105.5 72.5t137 22.5t135 -27t99.5 -76t32 -124q-4 -53 -12.5 -128.5t-17.5 -161.5t-18 -174.5t-18 -165.5q-10 -96 -44.5 -160t-82 -94.5t-99.5 -28.5t-99 37t-80 101.5t-41 166.5q-4 59 -10 141t-12.5 167t-11.5 167.5t-5 141.5zM68 127q0 53 57 91 t139 38t139.5 -38t57.5 -91t-57.5 -90t-139.5 -37t-139 37t-57 90z" />
<glyph unicode="#" horiz-adv-x="575" d="M2 905.5q4 18.5 25.5 30.5t62.5 6q0 -2 4 -2q4 20 7 39.5t8 38.5q-16 4 -25 4q-31 6 -43 23.5t-8 36t25.5 30.5t62.5 6h6q4 16 4 23q6 31 23.5 44t36 9t30.5 -26.5t6 -61.5q0 -4 -2 -6q20 -4 40 -7t40 -8q0 12 4 25q6 31 23.5 43t36 8t31 -26.5t3.5 -61.5v-4q4 -2 13 -2 q35 -6 50 -25.5t13 -39t-22.5 -31.5t-55.5 -6q-4 2 -8 2t-8 2q-4 -18 -6 -38t-6 -40q4 0 5 -1t5 -1q37 -6 52.5 -24.5t12 -38t-22.5 -32t-56 -6.5q-4 0 -7.5 1.5t-7.5 1.5q-2 -4 -2 -11q-6 -37 -25.5 -52t-38 -13t-30.5 22.5t-6 55.5q0 4 1 8t1 8q-20 4 -38.5 7t-39.5 7 q0 -8 -2 -12q-6 -37 -24.5 -52.5t-38 -12t-31.5 22.5t-6 56q2 4 2 8.5t2 8.5q-8 2 -14.5 2t-10.5 2q-31 6 -43 23.5t-8 36zM195 922q18 -4 37.5 -6.5t39.5 -6.5q4 18 7.5 38t7.5 40q-20 4 -40 6t-38 6q-4 -18 -7 -37.5t-7 -39.5z" />
<glyph unicode="$" horiz-adv-x="1048" d="M2 787.5q-4 56.5 0 105.5q16 229 158.5 321.5t410.5 59.5q33 86 68 115.5t64.5 17.5t47 -59.5t15.5 -116.5q78 -33 120 -84t55 -107.5t1 -112t-43 -95t-78 -59t-104 -5.5q-16 4 -34.5 8t-41.5 8q-4 -10 -7 -21.5t-7 -21.5q61 -16 119.5 -42.5t102.5 -71.5t68.5 -114 t18.5 -169q-8 -121 -63.5 -191.5t-138.5 -106.5t-180 -43t-189 3q-35 -47 -67 -43t-44 62q-45 10 -82 21t-63 22q-43 18 -69 58t-34 86t-2 93t25.5 81t51.5 49.5t73 -1.5q29 -10 68.5 -24.5t84.5 -28.5q6 23 12.5 46.5t14.5 51.5q-125 39 -193.5 90.5t-101.5 106.5 t-37 111.5zM373 811q-4 -8 4 -16.5t33 -12.5q4 -2 14 -2q8 23 10 39q-2 2 -8 2q-20 4 -34.5 1t-18.5 -11zM494 330q31 -4 45 6t16 26.5t-6 34t-23 29.5q-10 -25 -17 -49t-15 -47z" />
<glyph unicode="&#x26;" horiz-adv-x="1222" d="M0 403q-2 100 32 176t105 123q-29 14 -55.5 44t-46 74t-28.5 101.5t-1 127.5q8 76 39 146.5t89.5 124.5t149.5 87t220 33q104 0 198.5 -23.5t168 -75t120.5 -132.5t56 -193q4 -51 -19.5 -87t-62.5 -57.5t-87.5 -27.5t-92.5 4t-79.5 35.5t-48.5 68.5q-18 57 -61 87t-91 29 t-90 -30.5t-57 -89.5q-14 -59 0.5 -94t38 -58.5t47 -42t25.5 -44.5q0 -27 -21.5 -41.5t-47 -33t-49 -49t-29.5 -89.5q-8 -88 42 -148.5t160 -64.5q70 0 113 18t65.5 50t26.5 73t-8 82q-2 -4 -4 -6t-4 -6q-16 -29 -38 -31t-44.5 14.5t-40 45t-24.5 62t0 67.5t36 59 q43 39 87 40t87 -3.5t86 5t86 62.5q27 33 65 27t66.5 -39t36.5 -82t-24 -98q-14 -23 -33 -35q16 -74 10 -164q-4 -70 -38 -144.5t-99.5 -137t-167.5 -102.5t-246 -40q-117 0 -211 29.5t-161.5 82t-105.5 126t-40 165.5z" />
<glyph unicode="'" horiz-adv-x="770" d="M104.5 991.5q12.5 16.5 52.5 49t94 89t91 148.5q35 86 86 115.5t94 15.5t65.5 -66.5t-1.5 -128.5q-27 -82 -82 -136t-121 -83.5t-132.5 -37t-111.5 5.5q-47 12 -34.5 28.5z" />
<glyph unicode="(" horiz-adv-x="512" d="M-1 603q-1 134 19.5 263t64.5 245t116 204q29 35 74.5 47t83.5 1t53.5 -47t-15.5 -97q-86 -168 -125 -337t-40 -324t32 -286t92 -223q27 -41 14.5 -79t-43 -56t-73.5 -13t-78 50q-53 68 -92 171t-60.5 225t-22.5 256z" />
<glyph unicode=")" horiz-adv-x="520" d="M4.5 1316q15.5 36 53.5 47t84 -1t75 -47q72 -88 116 -204t64.5 -245t19.5 -263t-22.5 -256t-60.5 -225t-92 -171q-35 -45 -78 -50t-74 13t-43 56t14 79q57 92 91 223t33 286t-40 324t-125 337q-31 61 -15.5 97z" />
<glyph unicode="*" horiz-adv-x="595" d="M-1 973.5q1 19.5 22.5 37t66.5 17.5h29q-18 18 -25 27q-29 29 -30 55.5t13.5 40.5t40 12t52.5 -30q6 -4 11 -10.5t11 -14.5q2 14 2.5 24.5t0.5 18.5q0 33 17 51.5t36.5 17.5t37 -22.5t17.5 -64.5v-25q23 23 29 31q23 25 47 24.5t38.5 -14.5t12.5 -42t-33 -58 q-4 -4 -9 -9.5t-11 -11.5h35q39 0 59 -17.5t21.5 -37t-18 -36.5t-58.5 -17h-41q10 -12 19 -21.5t16 -15.5q23 -25 22.5 -48.5t-16 -38t-42 -10t-57.5 34.5q-4 4 -7 8.5t-7 8.5v-29q0 -39 -17.5 -59.5t-38 -21.5t-38 18.5t-17.5 58.5v33l-20 -21q-27 -29 -53.5 -32t-42 11.5 t-14.5 40t28 54.5q8 6 14.5 13t14.5 16h-49q-35 0 -52.5 17t-16.5 36.5z" />
<glyph unicode="+" horiz-adv-x="1112" d="M-1 505q1 56 21.5 103t59.5 79t98 32h113v151q0 45 31.5 76t79 46.5t103.5 14.5t103 -21.5t79 -59.5t32 -99v-108h123q53 0 90 -32t55.5 -80t19.5 -103t-15.5 -103.5t-52.5 -80t-89 -31.5h-131v-123q0 -53 -32 -90t-80 -55.5t-103 -19.5t-103.5 15.5t-80 52t-31.5 89.5 v133h-152q-45 0 -76.5 31.5t-47 79t-14.5 103.5z" />
<glyph unicode="," horiz-adv-x="616" d="M1 -275.5q-3 39.5 2 89t13.5 95.5t16.5 83t10 55q8 61 41 100t79 57.5t96 16.5t92 -23.5t68.5 -59.5t24.5 -91q0 -18 -19 -55t-51 -83t-72 -95.5t-82 -89t-82 -65.5t-72 -26q-33 0 -47.5 26t-17.5 65.5z" />
<glyph unicode="-" horiz-adv-x="905" d="M102 478q2 50 37 93t109 43h321q43 0 73 -20.5t45 -51t16.5 -67.5t-13 -67.5t-43.5 -51t-72 -20.5q-66 0 -115.5 1t-92.5 2t-80 2t-74 1q-55 0 -84 43t-27 93z" />
<glyph unicode="." horiz-adv-x="663" d="M0 127q0 27 18.5 50.5t50 41t73.5 27.5t91 10t91.5 -10t74 -27.5t50 -41t18.5 -50.5t-18.5 -49.5t-50 -40t-73.5 -27.5t-92 -10q-49 0 -91 10t-73.5 27.5t-50 40t-18.5 49.5z" />
<glyph unicode="/" horiz-adv-x="901" d="M1 -72.5q-7 66.5 19 162.5q10 37 34 109.5t54.5 164t64.5 190.5t65.5 190.5t56.5 164t39 111.5q29 88 81 134t110.5 59.5t115.5 -4t96 -56.5t54.5 -97.5t-11.5 -127.5q-20 -53 -54 -141.5t-75 -191.5t-84 -213t-82 -205t-70.5 -165.5t-45.5 -99.5q-31 -57 -76 -93 t-93 -48.5t-91 0t-72 51.5t-36 105.5z" />
<glyph unicode="0" d="M0 684q0 141 28.5 277.5t92 243t167 172t255.5 65.5q166 0 267 -65.5t157.5 -172t76 -243t19.5 -277.5q0 -195 -42 -326t-113.5 -210.5t-168 -113.5t-207.5 -34t-208 38t-168.5 121t-113.5 213t-42 312zM393 563q-2 -35 4 -77t23.5 -78.5t47.5 -61t77 -24.5q49 0 79.5 20 t48 55t23.5 79t6 93q0 35 -5 73t-21.5 68.5t-46 50t-78.5 19.5q-47 0 -77 -20.5t-47 -52t-25.5 -70.5t-8.5 -74z" />
<glyph unicode="1" horiz-adv-x="1044" d="M5 768q-13 61 7.5 129t91.5 129q63 55 138 119.5t141 120t110 93.5t46 38q51 37 120.5 40t132 -21.5t105.5 -74t43 -116.5v-926q0 -90 -35 -154.5t-88 -100.5t-114.5 -43t-114.5 20.5t-89 89t-38 161.5v64t-1 89t-2 109.5t-1 120.5q-20 -16 -39 -32.5t-37 -30.5 q-51 -39 -110.5 -40t-114 26.5t-96.5 78t-55 111.5z" />
<glyph unicode="2" horiz-adv-x="1175" d="M0 948q8 137 58.5 232.5t128 155t175 85t201.5 25.5q129 0 222.5 -33t152.5 -88t90 -126t35 -146q10 -205 -63.5 -355.5t-190.5 -263.5q14 0 27.5 -1t23.5 -1q80 -2 128 -34.5t68.5 -81t15.5 -103.5t-31.5 -102.5t-72.5 -79t-108 -31.5h-555q-92 0 -156.5 31.5t-100.5 80 t-41 104.5t24 103q16 37 65 80t116 89.5t138.5 97.5t133 104t101.5 110.5t42 119.5q0 57 -29 84.5t-65.5 24.5t-68.5 -37t-38 -99q-4 -61 -40 -103t-84 -63.5t-103.5 -20.5t-101.5 26.5t-73.5 78.5t-23.5 137z" />
<glyph unicode="3" horiz-adv-x="1171" d="M0 424q-4 70 7 125t26 98q14 47 51 74t80 33t88 -5.5t79 -39t50 -68.5t2 -94q-14 -57 4.5 -98t54 -65t81.5 -29t85 11.5t65.5 52.5t22.5 97q-2 59 -26.5 87t-52 42t-51 25.5t-23.5 38.5q2 27 24.5 45t47 40.5t43 57.5t12.5 96q-4 57 -39 87t-78 31t-83 -27.5t-58 -86.5 q-12 -43 -48 -68.5t-80 -35.5t-92.5 -4t-87 27.5t-62.5 57.5t-19 87q8 113 55 193.5t120.5 132t168 75t198.5 23.5q129 0 220.5 -33t150.5 -87t89 -125t40 -146q8 -70 -1 -127.5t-29.5 -101.5t-47 -74t-55.5 -44q143 -94 137 -299q-2 -92 -39 -165.5t-104.5 -126t-162.5 -82 t-212 -29.5q-141 0 -243.5 40t-169 102.5t-100.5 137t-38 144.5z" />
<glyph unicode="4" horiz-adv-x="1175" d="M0 1021q0 93 2 153q2 92 36 152t81 92t101 34t99.5 -22.5t75 -74.5t27.5 -124q-2 -49 -6 -121t-10.5 -152.5t-13.5 -164.5t-13 -158q20 4 38.5 5t37.5 3q6 76 12 143.5t12 118.5q4 45 32 74t64.5 40t78.5 4t77 -33.5t58.5 -74t23.5 -114.5q2 -31 2 -58.5v-56.5 q10 2 22.5 3t24.5 3q63 8 109.5 -22.5t72 -81.5t30.5 -112.5t-11 -118t-55 -96.5t-101 -46q-12 -2 -32.5 -2t-45.5 -2v-10q2 -66 -25.5 -110t-71.5 -66.5t-96 -23.5t-97 18.5t-76 59.5t-31 101v25q-35 0 -83 2t-92 5t-75.5 5t-36.5 4q-55 6 -96 70.5t-43 197.5 q0 57 -2 149.5t-3 191t-1 191.5z" />
<glyph unicode="5" horiz-adv-x="1167" d="M1 1079q-3 90 3 162t31 90q31 47 95.5 81t168.5 34h485q70 0 112 -30t61.5 -76t14.5 -99t-31 -99t-71 -78t-106 -34q-51 -2 -139 -1t-193 3q0 -16 1 -34.5t1 -26.5q100 4 209 -9.5t199 -62.5t151.5 -139t67.5 -240q10 -252 -134.5 -388t-410.5 -132q-74 2 -143.5 16.5 t-128 47t-103.5 87t-71 138.5q-25 78 4.5 131t85 72.5t121 4t112.5 -72.5q43 -53 99.5 -73.5t106.5 -11.5t83 48t31 105q0 53 -28 83.5t-70 45t-95 14.5t-107.5 -6t-104.5 -16.5t-85 -16.5q-53 -8 -88 8.5t-57.5 44t-33.5 59t-13 54.5q-8 49 -17.5 138t-12.5 179z" />
<glyph unicode="6" d="M-2 795q0 76 11 159.5t40 163.5t82 148.5t137 113.5t205 60.5t287 -8.5q72 -16 119 -50t68.5 -76t17.5 -85t-36 -77t-92.5 -53.5t-150.5 -11.5q-82 6 -139.5 -1t-94 -24.5t-58 -44t-29.5 -63.5q66 43 142.5 61.5t154 12.5t150.5 -37t128 -88t89 -140t34 -194 q0 -147 -44 -255.5t-121 -177.5t-180.5 -100.5t-223.5 -27.5q-131 6 -225.5 63.5t-155 160t-88 247.5t-27.5 324zM362 571q0 -78 27 -126t66 -70.5t86 -21.5t87 25.5t67.5 69t29.5 105.5q2 86 -47 136t-113.5 56.5t-124 -34.5t-78.5 -140z" />
<glyph unicode="7" horiz-adv-x="1159" d="M0 1205.5q2 62.5 32.5 114.5t91 87t155.5 35h524q51 6 100 -9.5t86 -49t56.5 -84t11.5 -115.5q-4 -20 -15.5 -85t-27 -152t-34.5 -187.5t-36.5 -196.5t-32 -177t-22.5 -128q-12 -88 -59.5 -146.5t-107.5 -87t-126 -25.5t-117 38t-78.5 101.5t-13.5 164.5q6 45 18.5 114.5 t28 155.5t33.5 180.5t37 188.5q-80 0 -161 3t-146 7q-63 6 -109.5 44t-68 92.5t-19.5 117z" />
<glyph unicode="8" horiz-adv-x="1167" d="M0 582q2 94 38 170.5t95 134.5q-14 43 -20.5 93t-6.5 105q2 86 39 153t95.5 114t131 72.5t146.5 25.5q86 0 165 -21.5t140.5 -67.5t97 -118t35.5 -174q1 -98 -24 -172q61 -59 97 -141t36 -195q0 -147 -45 -255.5t-123 -177.5t-185.5 -100.5t-230.5 -27.5q-111 4 -202 46 t-153.5 117t-96 180.5t-29.5 238.5zM362 512q0 -61 25 -100t63.5 -58.5t84 -19.5t83 20.5t64.5 59.5t27 98q0 82 -53.5 125t-119 44t-120 -41t-54.5 -128zM424 993q0 -63 34 -95t73.5 -32t72.5 30t35 91q2 57 -32 86t-74.5 30t-74.5 -26.5t-34 -83.5z" />
<glyph unicode="9" horiz-adv-x="1167" d="M0 887q2 147 46 254.5t120 176t179 100.5t224 28q131 -4 225.5 -62.5t155 -161t88 -247t27.5 -322.5q0 -76 -11.5 -160.5t-40 -163.5t-81.5 -147.5t-137 -113.5t-205 -61.5t-287 7.5q-106 23 -158.5 85.5t-46.5 126t75 108.5t204 35q150 -10 219.5 22.5t93.5 95.5 q-98 -57 -219 -55t-226.5 55.5t-176 154.5t-68.5 245zM389 893q-2 -43 17.5 -78t50 -56.5t68.5 -28.5t73 5.5t62.5 44t39.5 86.5q0 57 -23.5 95t-57 56.5t-73.5 19.5t-75 -15t-58.5 -49t-23.5 -80z" />
<glyph unicode=":" horiz-adv-x="667" d="M0 127q0 27 18.5 50.5t50 41t73.5 27.5t91 10t91.5 -10t74 -27.5t50 -41t18.5 -50.5t-18.5 -49.5t-50 -40t-73.5 -27.5t-92 -10q-49 0 -91 10t-73.5 27.5t-50 40t-18.5 49.5zM0 641q0 27 18.5 49.5t50 40t73.5 27.5t91 10t91.5 -10t74 -27.5t50 -40t18.5 -49.5 t-18.5 -50.5t-50 -41t-74 -27.5t-91.5 -10t-91 10t-73.5 27.5t-50 41t-18.5 50.5z" />
<glyph unicode=";" horiz-adv-x="671" d="M-28 -376q-3 40 2.5 89t13.5 95.5t16 83.5t10 55q8 61 41 100t79 57.5t96.5 16.5t92.5 -23.5t68.5 -59.5t24.5 -91q0 -18 -19.5 -55t-51.5 -83.5t-72 -95.5t-81.5 -89t-81.5 -65.5t-73 -25.5t-47.5 25.5t-17.5 65.5zM-2 459q0 27 18.5 50t50 40.5t73.5 28t91 10.5 t91.5 -10.5t74 -28t50 -41t18.5 -49.5q0 -27 -18.5 -50.5t-50 -41t-73.5 -27.5t-92 -10q-49 0 -91 10t-73.5 27.5t-50 41t-18.5 50.5z" />
<glyph unicode="=" horiz-adv-x="739" d="M-2 138q2 50 29.5 93t85.5 43h424q51 0 77.5 -43t27.5 -94t-24.5 -94t-76.5 -43h-117t-131.5 1t-120.5 1h-86q-43 0 -66.5 43t-21.5 93zM-2 552q2 50 29.5 93t85.5 43h424q51 0 77.5 -43t27.5 -94t-24.5 -94t-76.5 -43h-117t-131.5 1t-120.5 1h-86q-43 0 -66.5 43 t-21.5 93z" />
<glyph unicode="?" horiz-adv-x="1136" d="M0 907q0 135 41 234.5t111.5 164t163 97.5t196.5 39q129 6 226.5 -21.5t163 -79t99 -121t37.5 -145.5q6 -127 -16.5 -202.5t-61 -123t-85 -76t-86 -59t-64.5 -73.5t-20 -119q2 -45 -31 -76t-84 -48t-110.5 -19.5t-111 8t-87 35t-35.5 63.5q-2 84 27.5 141.5t72.5 99.5 t94.5 74.5t94.5 67.5t71.5 79t26.5 107q-2 57 -36 89t-76 26t-81 -54t-49 -151q-6 -45 -36.5 -72.5t-73.5 -40t-92.5 -8t-91.5 23.5t-69.5 54t-27.5 86zM248 127q0 27 18.5 50.5t50 41t73.5 27.5t91 10t91 -10t74 -27.5t50.5 -41t18.5 -50.5t-18.5 -49.5t-50.5 -40 t-74 -27.5t-91 -10t-91 10t-73.5 27.5t-50 40t-18.5 49.5z" />
<glyph unicode="@" horiz-adv-x="1878" d="M2 477q0 184 69.5 347t191.5 285t285 191.5t347 69.5t347 -69.5t285 -191.5t191.5 -284.5t69.5 -347.5q0 -184 -69.5 -346t-191.5 -283.5t-285 -191.5t-347 -70t-347 70t-285 191.5t-191.5 283.5t-69.5 346zM354 365q0 -113 43 -212.5t117 -173t173 -116.5t212 -43 t212 43t173 116.5t117 173t43 212.5t-43 212t-117 172.5t-173 116.5t-212 43t-212 -43t-173 -116.5t-117 -173t-43 -211.5zM465 348q-2 121 41 187.5t105.5 99.5t132 39t118.5 6q53 0 106.5 -13.5t98.5 -43.5q26 55 104 55q47 0 75 -13.5t42.5 -51.5t17.5 -109.5t3 -188.5 q0 -98 -11.5 -159.5t-30 -97t-43 -48t-50.5 -12.5q-51 0 -82 65q-45 -35 -102.5 -50t-123.5 -15q-84 0 -156.5 15.5t-127 55.5t-86 107.5t-31.5 171.5zM721 305q-2 -66 38 -91.5t95 -25.5q45 0 84 22.5t37 88.5q-2 63 -41 90t-82 27q-16 0 -38.5 -5t-42 -17.5t-35 -34 t-15.5 -54.5z" />
<glyph unicode="A" horiz-adv-x="1157" d="M0 493.5v73.5v29q0 227 30 383q32 166 98.5 267.5t164.5 147.5t231 50h21q106 0 189 -37q91 -41 154.5 -119t101.5 -190.5t54 -249.5q8 -63 10.5 -155.5t3.5 -186.5t1 -178t2 -129q0 -8 1 -16q0 -55 -26 -93q-28 -43 -73 -63.5t-99 -21.5h-6q-51 -1 -95 17q-46 18 -77 56 q-29 35 -29 85v7t-1 23.5t-1 54.5q-47 -4 -96 -7q-21 -1 -41 -1q-27 0 -51 2v-21q0 -76 -33 -124t-83 -71q-49 -24 -109 -25h-7q-56 1 -103 17q-50 18 -85 53t-35 85q-4 55 -7 115.5t-4 117.5t-1 104.5zM455 557q47 -4 100 -6t94 -4q0 20 -1 41.5t-1 44.5q0 113 -30.5 172 t-66.5 59t-65.5 -64.5t-29.5 -199.5v-43z" />
<glyph unicode="B" horiz-adv-x="1177" d="M0 942v167t2 116q2 51 11.5 90t37 65.5t79.5 42t140 19.5q60 2 142 3h13q76 -1 157 -11q88 -12 175 -37t155.5 -73t111.5 -125t43 -189q0 -129 -24.5 -227.5t-94.5 -164.5q55 -31 88 -80.5t35 -123.5v-12q0 -107 -35 -184q-37 -81 -132 -131q-95 -51 -262 -71 q-140 -17 -343 -17q-40 0 -82 1q-29 0 -64.5 18.5t-68.5 52t-54.5 86t-23.5 119.5q0 39 -1 113t-2 166t-2 193.5t-1 193.5zM453 283q92 2 138 19t50 35.5t-32 34t-105 15.5h-51v-104zM453 686q102 6 152 36t50 61.5t-46 57t-136 25.5q-12 0 -20 -2v-178z" />
<glyph unicode="C" horiz-adv-x="1161" d="M2 756q8 195 62.5 331t135.5 219q81 84 181 116q75 24 150 24q25 0 51 -3q102 -11 195 -63.5t162 -140.5q69 -89 103 -209q23 -82 22 -176q0 -45 -5 -94q-6 -53 -36 -85t-72 -48.5t-89 -17.5h-7q-43 1 -79 11q-39 12 -64.5 33t-23.5 49v17q0 147 -131 147 q-53 0 -84 -24.5t-48 -65.5t-22.5 -97t-5.5 -120q0 -137 45 -201q46 -65 100 -71q6 -1 12 0q47 0 89 40q47 46 51 132q2 31 29 50t65 25q22 4 46 4q17 0 34 -2q43 -4 80 -20q38 -16 62 -44q23 -26 22 -59v-5q-4 -57 -30.5 -130t-86 -135.5t-153.5 -104.5q-86 -38 -208 -38 h-24q-131 4 -233 59.5t-170 153.5q-69 97 -101 235q-26 110 -26 242q0 32 2 66z" />
<glyph unicode="D" horiz-adv-x="1167" d="M0 940v167t2 116q4 104 65.5 155.5t147.5 61.5q69 3 132 3q123 -1 217 -13q144 -20 237.5 -65.5t146.5 -116t79 -162t32 -202t6 -235.5q0 -211 -42 -340t-141 -199q-98 -70 -260 -92q-138 -19 -334 -19q-35 0 -71 1q-35 0 -71.5 19.5t-67.5 54.5t-50.5 86t-21.5 116 q0 39 -1 113t-2 166t-2 192.5t-1 192.5zM453 319q72 23 120 73q49 50 71 110q22 58 21 120v6q-1 64 -24 117.5t-68 87t-108 33.5q-4 0 -6 -1t-6 -1v-545z" />
<glyph unicode="E" horiz-adv-x="1167" d="M0 362v730q0 63 12.5 124.5t40 111.5t71.5 82t109 36q39 2 124 2h181.5h187.5h144q61 0 105.5 -43t67 -106.5t23.5 -138.5v-7q0 -71 -20 -133q-20 -64 -64 -107t-112 -43h-395q-55 0 -71 -20q-15 -17 -15 -59v-11h141q41 0 86 2q31 0 50 -22q20 -22 28 -58q7 -32 7 -68 v-9q-1 -41 -12 -77t-31.5 -60.5t-49.5 -26.5q-20 -2 -50 -3t-61.5 -1t-61 1t-48.5 1q0 -6 -2 -18.5t-1 -25t6 -21.5t20 -9q88 0 210 -2q40 -1 80 -1q81 0 162 3h9q62 -1 103 -27q44 -28 64 -70q20 -40 20 -88q0 -53 -22 -99q-22 -44 -64 -72.5t-102 -28.5q-53 0 -145 -1 t-188.5 -1h-180.5t-123 2q-66 2 -109.5 36t-71 85t-40 114.5t-12.5 126.5z" />
<glyph unicode="F" horiz-adv-x="1191" d="M0 1120v21q0 53 8 101q10 58 37 103.5t71 73t109 31.5q39 2 125 2h186.5t199 -1t161.5 -1q68 0 112 -42q43 -42 65 -106q21 -61 21 -131v-7q-1 -74 -27 -138.5t-75 -108t-123 -43.5q-82 0 -156 2h-34q-57 0 -117 -4q-39 -4 -59 -22q-21 -18 -29 -48q-7 -26 -7 -60v-8 q1 -38 3 -77q35 2 69.5 2t63.5 3q33 0 60 2q33 6 54 -18q22 -23 32 -63q10 -37 9 -79v-8q-1 -47 -11.5 -90.5t-32 -74t-51.5 -34.5q-58 -8 -106 -10q-24 -1 -46 -1t-41 1q-2 -35 -2 -64.5v-52.5q0 -51 -34 -88t-86 -58q-51 -20 -111 -23h-20q-49 1 -92 13q-52 16 -87 50 t-35 92q-2 137 -2 288.5v287.5v240.5t-2 147.5z" />
<glyph unicode="G" horiz-adv-x="1177" d="M2 756q8 195 62.5 331t135.5 219t181 116q75 24 150 24q26 0 51 -3q102 -11 195 -63.5t162 -140.5t103 -209q22 -82 22 -177q0 -45 -5 -93q-6 -53 -36 -85t-72 -48.5t-89 -17.5h-7q-43 0 -79 11q-39 11 -64.5 32.5t-23.5 49.5v17q0 147 -131 147q-53 0 -84 -24.5 t-48 -65.5t-22.5 -97t-5.5 -120q0 -113 32 -176.5t75 -84.5q24 -12 48 -12q20 0 40 8q45 17 74 64q-29 8 -52.5 14.5t-40.5 10.5q-27 8 -43 46q-15 36 -15 73q0 44 23 76q19 25 57 25q7 0 15 -1q57 -6 121 -18.5t121 -26.5t104 -28.5t72 -20.5q37 -10 46 -46q5 -19 5 -39 q0 -18 -4 -37q-8 -40 -29.5 -73.5t-46.5 -40.5q-23 -51 -60.5 -101t-94 -90t-134.5 -63q-67 -19 -150 -19q-15 0 -30 1q-131 4 -233 59.5t-170 153.5t-101 235q-26 111 -26 242q0 32 2 66z" />
<glyph unicode="H" horiz-adv-x="1175" d="M0 944v167t2 116q2 80 37 132q35 53 85 75q39 18 84 17q12 0 24 -1q58 -6 107.5 -41t81.5 -99.5t32 -156.5q0 -18 1 -60t1 -100.5v-128t-2 -141.5q35 -2 74.5 -3t74.5 -3q-4 80 -7 157.5t-5 145t-2 122v85.5q4 80 40 129q36 48 89 70q45 18 95 19q10 0 20 -1 q62 -4 114.5 -31t88.5 -75t38 -111v-86.5v-149.5v-185v-194.5v-176.5v-128q0 -90 -30.5 -155.5t-76.5 -103.5t-102 -46q-13 -2 -25 -2q-42 0 -80 20q-50 26 -87 90t-45 169q0 8 -1 17t-1 19q-49 -4 -101 -6q-13 -1 -26 -1q-37 0 -68 5q0 -2 -1 -3t-1 -3q-8 -92 -42 -158.5 t-80 -103.5t-98 -42q-8 -1 -16 -1q-43 0 -80 24q-44 28 -74 90t-32 163q0 39 -1 113.5t-2 165.5t-2 192.5t-1 193.5z" />
<glyph unicode="I" horiz-adv-x="555" d="M0 936v167t2 116q2 80 37 128q35 49 85 69q39 16 84 16q12 0 24 -2q58 -6 106.5 -32t81.5 -72t33 -107v-920q0 -90 -33 -154.5t-82 -100.5q-48 -36 -106 -43q-12 -1 -23 -1q-44 0 -84 22q-49 28 -83 89t-36 161q0 39 -1 113t-2 166t-2 192.5t-1 192.5z" />
<glyph unicode="J" horiz-adv-x="1226" d="M0 1161v14q0 66 18 123q19 64 60 106t108 42q127 0 233.5 -1t199 -2t176.5 -1t166 2q39 0 71.5 -40t55 -101.5t31.5 -132.5q5 -41 5 -79q0 -29 -3 -57q-7 -65 -33.5 -110t-75.5 -54q2 -23 3 -42t1 -33q2 -40 2 -79q0 -132 -22 -244q-27 -146 -88.5 -248.5t-159 -160 t-228.5 -63.5q-17 -1 -34 -1q-115 0 -198 37q-95 42 -155.5 119.5t-91.5 184t-39 231.5v13q0 45 24 79q29 39 74 62t100 28q15 1 30 1q37 0 70 -8q46 -13 79 -43.5t35 -79.5q4 -119 25.5 -193t44.5 -86q5 -2 9 -2q18 0 33 46q19 56 19 202q0 49 -2 121.5t-6 148.5 q-115 0 -217.5 2t-165.5 6q-45 2 -80 46t-53.5 108.5t-20.5 138.5z" />
<glyph unicode="K" horiz-adv-x="1175" d="M0 936v167t2 116q2 80 37 130q35 49 85 71q44 19 94 19h14q58 -3 106.5 -30t81.5 -76t33 -114v-45q35 31 70.5 62.5t68.5 60t59.5 53t44.5 41.5q53 49 111 49h9q63 -4 116 -46t90 -111t41 -145v-16q0 -69 -32 -136q-36 -75 -126 -126q-82 -47 -143.5 -82t-122.5 -65 q39 -27 86 -61t94 -67.5t88 -63.5t70 -50q70 -51 88 -124q8 -33 8 -66q1 -39 -11 -77q-22 -70 -74 -124q-52 -56 -124 -72q-23 -5 -47 -5q-51 -1 -107 23q-83 34 -163 148q-27 37 -49.5 71t-44.5 64v-10q0 -90 -33 -154.5t-82 -100.5q-48 -36 -106 -43q-12 -1 -23 -1 q-44 0 -84 22q-49 28 -83 89t-36 161q0 39 -1 113t-2 166t-2 192.5t-1 192.5z" />
<glyph unicode="L" horiz-adv-x="1175" d="M0 898v155.5t2 111.5q4 92 44 153.5t98 92.5t124 34h14q58 1 108 -21q56 -24 93 -75t37 -124q0 -29 -7 -118t-17.5 -205t-20.5 -240.5t-16 -223.5q102 10 196 21.5t207 25.5q13 2 25 2q47 -1 85 -25q46 -30 71.5 -80t30.5 -112q1 -15 1 -30q0 -46 -12 -88 q-16 -56 -55 -96t-101 -46q-35 -4 -117 -6t-182 -3q-50 0 -101 -0.5t-103 0.5q-104 1 -183 5h-8q-53 0 -91 24q-40 26 -65.5 65.5t-37 87.5t-11.5 93q0 39 -1 109t-2 155t-3 179t-2 179z" />
<glyph unicode="M" horiz-adv-x="1267" d="M-1 748q0 50 -0.5 98t0.5 94q1 92 1 167t2 116q2 72 29.5 120t69.5 75q41 26 93 29h14q44 0 85 -17q43 -29 90 -96.5t89 -143.5t74 -141.5t48 -90.5q23 43 49.5 112t58 138.5t67.5 129t77 85.5q49 25 104.5 25t103.5 -25.5t79.5 -75.5t33.5 -124q2 -41 2 -116v-167 t-2 -192.5t-3 -192.5t-2 -166t-1 -113q-2 -90 -33.5 -150t-80 -91t-103.5 -33h-7q-51 0 -96 26q-48 28 -81 82t-33 136q-2 33 -2 82t-2 108q-18 -38 -57 -56q-32 -15 -68 -15q-7 1 -14 1q-43 4 -81 28t-54 69q-4 -92 -8.5 -166t-12.5 -119q-8 -51 -43 -92t-82 -63.5 t-99 -22.5t-96.5 27.5t-74 88t-31.5 160.5q0 39 -1 113t-1 166.5t-1 192.5z" />
<glyph unicode="N" horiz-adv-x="1175" d="M0 946v167t2 116q2 92 52 145q50 52 118 66q22 4 44 5q46 1 92 -19q68 -28 108 -101q8 -14 25.5 -47t42 -79t55 -102.5t65.5 -117.5q-8 84 -12 149.5t-4 100.5q2 80 40 128q38 49 91 69q41 16 88 15q13 0 27 -1q62 -6 116 -33t88.5 -73t34.5 -105q0 -23 -2 -84.5 t-5 -145.5t-6 -181t-7 -192.5t-7.5 -178t-5.5 -138.5q-6 -129 -47 -207t-103 -96q-18 -5 -38 -5q-48 0 -104 33q-78 46 -158 167q-25 35 -63 98t-85 141q-2 -41 -6 -73.5t-8 -57.5q-14 -92 -51 -158.5t-83 -103.5t-96 -42q-8 -1 -16 -1q-42 0 -77 24q-42 28 -69.5 90 t-27.5 163q0 39 -1 113.5t-2 165.5t-3 192.5t-2 193.5z" />
<glyph unicode="O" d="M0 684q0 141 15.5 277.5t70.5 243t163 172t294 65.5q129 0 219 -30t147.5 -83t89 -124.5t46 -155.5t16.5 -177.5t2 -187.5q0 -195 -42 -326t-113.5 -210.5t-168 -113.5t-207.5 -34t-208 38t-168.5 121t-113.5 213t-42 312zM358 608v-17q0 -36 6 -78q8 -52 29 -96t58 -74 t94 -30q59 0 97 26t58.5 68t27.5 96t7 113q0 43 -6 88.5t-26.5 82t-56.5 61t-95 24.5q-55 0 -92 -25.5t-58.5 -64.5t-31 -85t-11.5 -89z" />
<glyph unicode="P" horiz-adv-x="1175" d="M-1 744q0 50 -0.5 98t0.5 94q1 92 1 167t2 116q2 53 17.5 92t41 64.5t58.5 38.5t69 18v2q90 8 172 8q111 0 206 -14q165 -24 278.5 -99.5t172 -203.5t58.5 -318q0 -127 -25.5 -228.5t-94 -172t-190.5 -109.5t-314 -45q-8 -78 -45 -134.5t-86.5 -86t-104.5 -31.5h-7 q-51 0 -95 26q-47 28 -78 89t-33 157q0 39 -1 113t-1 166.5t-1 192.5zM452 598q129 16 183 59q48 39 48 81v8q-5 46 -61.5 80t-148.5 34h-21v-262z" />
<glyph unicode="Q" horiz-adv-x="1171" d="M0 688q0 141 15.5 277.5t70.5 243t162.5 172t294.5 65.5q129 0 219 -30t147.5 -83t89 -124.5t46 -155.5t16.5 -177.5t2 -187.5q0 -111 -13 -198.5t-38 -159.5q41 -31 49 -74q3 -15 3 -31q0 -28 -10 -57q-14 -45 -45.5 -85t-70.5 -63q-37 -21 -77 -21h-4q-42 1 -75 38 q-8 8 -12 14q-53 -27 -112.5 -37t-125.5 -10q-111 0 -208 38t-168.5 121t-113.5 212t-42 313zM358 610v-17q0 -36 6 -77q9 -51 29.5 -95t57 -74t92.5 -30q-16 23 -26.5 41.5t-14.5 32.5q-6 22 -6 42q0 18 5 34q11 33 36.5 52.5t59.5 23.5q7 1 14 1q27 0 51 -12 q12 -4 28.5 -13t36.5 -19q4 29 6 58.5t2 59.5q0 43 -6 88.5t-26.5 83t-56.5 61t-95 23.5q-55 0 -92 -25.5t-58.5 -63t-31 -85t-11.5 -90.5z" />
<glyph unicode="R" horiz-adv-x="1179" d="M0 919.5v163t2 113.5q2 66 14.5 109t40 70.5t70.5 42t109 22.5q51 4 133 5h14q76 1 160 -9q92 -10 185 -36t168 -75t122 -128t47 -193q0 -96 -13.5 -174t-48 -139.5t-94 -106.5t-153.5 -72q80 -27 152.5 -51.5t109.5 -40.5q41 -16 53 -66q7 -29 7 -61q0 -25 -4 -51 q-9 -60 -42 -120t-83 -92q-43 -28 -100 -28q-9 0 -17 1q-68 5 -150 71q-72 59 -130 105t-103 85q-6 -82 -42 -140t-84.5 -89t-103.5 -34h-11q-49 1 -91 25q-47 28 -79 89t-34 157q0 39 -1 111t-1 162t-1 187t-1 187.5zM451 682q102 6 152 34.5t50 60.5t-47 57.5t-135 25.5 h-20v-178z" />
<glyph unicode="S" horiz-adv-x="1171" d="M3 346q7 53 29 92q23 38 58 56q17 9 37 9q21 0 45 -9q33 -12 80 -30t98 -34t103.5 -30.5t95.5 -22.5q16 -3 29 -3q24 0 40 10q24 15 26.5 37.5t-19 46.5t-68.5 34q-168 33 -274.5 78t-167 102t-85 129t-26.5 162v20q0 123 45 217q49 100 145 158q95 60 231 76q50 6 106 6 q94 0 202 -18q129 -20 205 -76t108 -124q27 -59 27 -121q0 -9 -1 -19q-5 -72 -40 -128t-92 -84q-35 -17 -76 -17q-26 0 -53 7q-35 8 -81 17.5t-92 16.5t-88 14.5t-69 13.5q-23 6 -39 1t-20 -13.5t5 -17.5t38 -15q55 -10 123.5 -20.5t136.5 -29t131.5 -49t110.5 -82.5 t73 -128q21 -61 20 -146q0 -20 -1 -41q-8 -129 -66.5 -210t-145.5 -123t-193 -52q-59 -6 -115 -6q-45 0 -91 4q-102 8 -189 29.5t-136 44.5t-78 66.5t-39 95.5q-6 31 -6 62q0 22 3 44z" />
<glyph unicode="T" horiz-adv-x="1239" d="M0 1164v13q0 65 18 123q20 64 60.5 106t107.5 42q127 0 235.5 -1t205 -1h182.5h170q51 0 86 -42t52.5 -106.5t17.5 -139.5t-16.5 -138.5t-49.5 -106.5t-84 -43q-27 0 -75 -1t-126 -3q4 -76 9 -165t7.5 -177t3.5 -168v-51q0 -48 -1 -86q-2 -84 -35 -134q-33 -51 -80 -71 q-36 -16 -77 -15q-13 0 -25 1q-54 6 -101 33.5t-78.5 76t-31.5 109.5q-1 24 -1 54.5t1 67.5q2 75 4 162t4 181t2 180q-70 2 -130 3t-101 3q-45 2 -80 46.5t-53.5 109t-20.5 138.5z" />
<glyph unicode="U" d="M0 1208v8q0 63 28 109q30 49 78 78t104 34q11 1 23 1q43 0 81 -16q48 -20 80 -66.5t32 -124.5q0 -33 -2 -95.5t-4 -146.5t-3 -184t-1 -207q0 -80 27.5 -129t60.5 -56q5 -1 9 -1q29 0 53 37q28 43 34 149q2 45 2 129t-1 178t-2 184.5t-1 151.5q0 49 33 89t83 66t110 34 q23 3 44 3q34 -1 66 -9q51 -14 86 -52t39 -108v-113q0 -65 1 -137v-72v-71.5v-69v-65.5q1 -62 1 -108v-65v-15q0 -154 -38 -258q-40 -108 -110.5 -172.5t-167 -91t-208.5 -26.5q-145 0 -243.5 37t-160 103.5t-89.5 159.5t-34 206q-4 66 -5 166t-2 204.5t-1 194.5t-2 137z " />
<glyph unicode="V" horiz-adv-x="1196" d="M6 1137q-7 36 -7 67q-1 46 13 82q22 62 66 100t102 52q31 8 62 7q26 1 51 -5q55 -12 100 -51t64 -105q6 -23 14 -66.5t17.5 -101t19.5 -125t22 -137.5q23 123 45.5 228.5t38.5 156.5q29 92 80 140q50 49 108 61q22 5 45 4l71 -12q58 -20 100 -64q44 -44 64 -106 q12 -36 11 -76q0 -30 -6 -62q-6 -31 -24.5 -93t-44 -143t-55 -172t-58 -177t-53.5 -162t-39 -123q-43 -132 -124 -194q-78 -60 -163 -60h-6q-88 2 -168 65.5t-116 182.5q-14 45 -34 116.5t-43.5 156.5t-47 177.5t-44 176t-37 152.5t-24.5 110z" />
<glyph unicode="W" horiz-adv-x="1724" d="M6 1141q-7 37 -7 69q1 44 13 80q22 62 64 100q43 38 100 52q30 8 60 7q26 0 52 -6q56 -13 102 -52t67 -105q8 -29 20 -73t24.5 -99t27 -118.5t26.5 -129.5q18 78 33.5 145.5t25.5 114.5q6 27 17.5 63t33 66.5t54.5 53t84 22.5q43 0 76.5 -18.5t57.5 -49t39 -67.5t23 -70 q12 -49 34 -119.5t46 -152.5q14 72 27.5 141.5t26 128t20.5 101.5t12 61q12 66 55.5 105t98.5 51q26 6 53 6q30 0 62 -8q60 -14 106 -52t70 -100q14 -37 14 -83q0 -31 -6 -66q-8 -41 -19.5 -109.5t-24.5 -152.5t-29.5 -174.5t-32 -175.5t-31 -156.5t-29.5 -116.5 q-35 -117 -106.5 -176.5t-152.5 -71.5q-22 -3 -44 -3q-58 1 -114 23q-77 32 -122 99q-10 12 -24.5 47t-29.5 77t-28.5 81t-19.5 57q-6 -18 -19.5 -57t-27.5 -79t-27.5 -75t-21.5 -47q-35 -69 -99 -103q-50 -26 -103 -26q-17 0 -33 2q-70 10 -134.5 70.5t-101.5 177.5 q-12 45 -34 116.5t-45.5 157.5t-48 177.5t-46 176.5t-39 153.5t-25.5 109.5z" />
<glyph unicode="X" horiz-adv-x="1183" d="M0 1148v11q0 69 24 124q26 60 70 102q44 41 98 55q23 6 46 6q31 0 62 -10q54 -18 99 -78q18 -25 57.5 -79t92.5 -128q45 66 81 114t56 74q46 61 106 83q39 14 77 14q19 0 39 -4q56 -12 102 -56t64 -114q9 -35 9 -76q-1 -41 -9 -88q-18 -94 -85 -209q-16 -27 -47 -75.5 t-74 -111.5q57 -80 104.5 -150.5t76.5 -119.5q35 -56 35 -118q0 -64 -26 -122q-24 -58 -65 -104t-88 -68q-40 -19 -80 -19l-14 1q-47 4 -82 49q-25 33 -66.5 87.5t-95.5 121.5q-41 -59 -78.5 -111.5t-66.5 -91.5q-31 -41 -79 -52q-22 -5 -45 -5q-28 0 -56 7q-52 13 -100 46 t-78 83q-32 50 -38 114q-1 10 -1 21q0 54 28 116q20 47 69.5 129t115.5 180q-29 41 -60 86t-57.5 86t-47 75t-30.5 52q-41 78 -43 153z" />
<glyph unicode="Y" horiz-adv-x="1167" d="M0 946v277q0 74 30.5 123t77 73.5t99.5 25.5h4q51 0 95 -21q46 -23 76 -70t30 -117q-1 -34 -1 -59.5t1 -43.5q2 -34 2 -73q0 -88 29.5 -139.5t64.5 -56.5q4 -1 7 -1q31 0 59 41q30 45 32 152q1 34 1 64.5t-1 58.5t-1 51t1 41q0 55 34 94t84 58.5t108 20.5h6q56 0 104 -17 q51 -19 85 -58t36 -96v-244q0 -244 -84 -400.5t-221 -223.5v-134q0 -90 -33 -149.5t-82 -90t-105 -32.5h-8q-53 0 -99 24q-50 27 -84 82.5t-36 137.5q-2 47 -3 84t-3 69q-82 35 -140.5 92.5t-95 130t-53 156.5t-16.5 170z" />
<glyph unicode="Z" horiz-adv-x="1167" d="M5 102q-4 19 -4 41q1 39 13 89q20 78 84 184q18 31 50 78t71 105t84 125t92 134q-66 0 -128 1t-109 5q-43 2 -77 46t-51.5 108.5t-19.5 138.5v15q0 64 16 122q18 64 57.5 106t104.5 42q123 0 214.5 -1t167 -1h145h147.5q74 0 122 -50q48 -52 68 -126q12 -46 12 -95 q0 -31 -5 -63q-12 -84 -62 -150q-29 -41 -71.5 -99t-95 -124.5t-108.5 -138.5t-110 -139q59 6 120.5 13t127.5 15q13 2 25 2q49 -1 85 -27q44 -32 68 -86q23 -52 26 -118v-18q0 -56 -16 -104q-20 -56 -60 -94t-101 -38h-758q-43 0 -78 25t-46 77z" />
<glyph unicode="`" horiz-adv-x="755" d="M208 1018q-5 41 10 73.5t44 45t57 -20.5q63 -72 123.5 -99.5t83.5 -39.5t22 -32.5t-38 -31.5q-20 -6 -55 -6t-72 5.5t-72 14.5t-57 23q-41 27 -46 68z" />
<glyph unicode="a" horiz-adv-x="1173" d="M0 442v11q0 146 52 228q54 85 134 126t167 49t151 8q70 0 137.5 -16.5t122.5 -54.5q33 69 133 69q61 0 96 -16.5t53.5 -65.5t22.5 -139q3 -60 3 -147q0 -43 -1 -93q0 -123 -14.5 -201.5t-37 -122.5t-53 -60.5t-65.5 -16.5q-66 0 -104 82q-57 -43 -130 -62.5t-155 -19.5 q-106 0 -199.5 19.5t-162 69.5t-108.5 135t-42 218zM326 389q0 -41 13 -68.5t35.5 -45t54.5 -25.5t67 -8q29 0 56.5 6t49 21.5t33.5 43t12 68.5q0 39 -14.5 67.5t-36 47t-49 26.5t-53.5 8q-20 0 -49 -6t-56 -21.5t-45 -43t-18 -70.5z" />
<glyph unicode="b" horiz-adv-x="1161" d="M0 399q0 219 2 366.5t17.5 237t50 127t100.5 37.5q45 0 75.5 -19.5t48 -61.5t26 -108.5t10.5 -162.5q51 27 107.5 38t115.5 11q63 0 150.5 -8t167 -49t133.5 -126q53 -82 53 -228v-11q-2 -133 -42 -218t-108.5 -135t-162 -69.5t-199.5 -19.5q-78 0 -146.5 16.5 t-124.5 55.5q-23 -41 -52 -56.5t-64 -15.5q-72 0 -115 97.5t-43 301.5zM410 381q0 -41 12 -68.5t33.5 -43t49 -21.5t56.5 -6q70 0 121 32q49 31 49 109v6q0 43 -19.5 70.5t-45 43t-54 21.5t-49.5 6q-27 0 -54.5 -8t-49 -26.5t-35.5 -47t-14 -67.5z" />
<glyph unicode="c" horiz-adv-x="1169" d="M0 442q2 123 50 205t124 130t170 67.5t191 19.5q90 0 182 -22.5t168 -71.5t126 -128t54 -193q0 -35 -25 -57q-26 -22 -65 -32q-33 -9 -70 -8h-15q-46 2 -88 14.5t-73 35t-39 57.5q-8 47 -64 73q-49 23 -105 24q-9 0 -17 -1q-64 -4 -116 -44t-54 -122q0 -53 20.5 -84 t52 -45t71.5 -15h10q35 0 66 6q36 7 64.5 17.5t40.5 20.5q45 43 103 50q14 2 29 2q42 -1 77 -17q46 -22 68 -65q10 -20 10 -43q0 -28 -14 -62q-23 -35 -69 -64t-106.5 -49.5t-126 -30.5t-126.5 -10q-504 0 -504 432v10z" />
<glyph unicode="d" horiz-adv-x="1173" d="M0 442v11q0 146 52 228q54 85 134 126t167 49t151 8q70 0 137.5 -16.5t122.5 -54.5q2 76 2 144.5t11 119.5t38 80.5t82 29.5q61 0 95 -25.5t51.5 -106.5t22.5 -232.5t5 -401.5q0 -123 -13.5 -201.5t-37 -122.5t-54 -60.5t-65.5 -16.5q-66 0 -104 82q-57 -43 -130 -62.5 t-155 -19.5q-106 0 -199.5 19.5t-162 69.5t-108.5 135t-42 218zM326 389q0 -41 13 -68.5t35.5 -45t54.5 -25.5t67 -8q29 0 56.5 6t49 21.5t33.5 43t12 68.5q0 39 -14.5 67.5t-36 47t-49 26.5t-53.5 8q-20 0 -49 -6t-56 -21.5t-45 -43t-18 -70.5z" />
<glyph unicode="e" horiz-adv-x="1169" d="M0 442q2 123 50 205t124 130t170 67.5t191 19.5q90 0 182 -22.5t168 -71.5t126 -128t54 -193q0 -35 -25 -57q-26 -22 -65 -32q-33 -9 -70 -8h-15q-46 2 -88 14.5t-73 35t-39 57.5q-6 35 -40 58.5t-79 32.5q-24 5 -48 5q-22 0 -45 -4q-48 -8 -85 -37h41q53 0 89 -35 t42 -78q1 -7 1 -13q0 -36 -28 -66q-32 -36 -116 -37h-26.5t-26.5 2q18 -25 59 -34q34 -7 70 -7h17q46 2 86 14t58 29q45 43 105 50q15 2 28 2q42 -1 77 -17q45 -22 67 -65q10 -20 10 -43q0 -28 -14 -62q-23 -35 -69 -64t-106.5 -49.5t-126 -30.5t-126.5 -10q-504 0 -504 432 v10z" />
<glyph unicode="f" horiz-adv-x="1169" d="M2 797v49q6 117 56.5 192.5t125 120.5t167 63.5t184.5 18.5q90 0 182 -22.5t169 -71.5t127 -128t54 -194q0 -33 -26.5 -55t-66.5 -32q-37 -10 -80 -10h-8q-48 1 -89 13.5t-71 36t-34 58.5q-6 57 -54 82q-35 19 -75 19q-14 0 -29 -2q-55 -9 -101 -55t-48 -132q0 -12 0 -8 v5l-1 -16t-1 -67h94t87 -1.5t67.5 -2.5t38.5 -1q68 0 114.5 -24.5t70.5 -63.5q23 -37 23 -79q0 -46 -26 -86q-25 -39 -75 -67t-128 -30q-45 -2 -118.5 -3t-147.5 -3v-127q-4 -63 -32.5 -102t-70.5 -56q-38 -16 -80 -16h-10q-47 2 -88 22.5t-68.5 56.5t-29.5 87q0 20 1 78.5 t1 132.5t-1 155.5t-2 150.5t-1 114z" />
<glyph unicode="g" horiz-adv-x="1161" d="M0 442v11q0 146 52 227q54 84 134 125t167 50t151 9q72 0 141.5 -18.5t128.5 -59.5q18 41 48 57.5t77 16.5q57 0 89 -29.5t48.5 -98t19.5 -178.5t3 -269q0 -23 -1 -66t-2 -89t-1 -83v-45q-10 -154 -69.5 -231.5t-153.5 -107.5q-90 -29 -205 -29h-7q-120 1 -249 4 q-55 0 -90 26.5t-51 63.5q-15 32 -15 71v9q2 45 22.5 80.5t59.5 59.5q36 21 87 21h9q61 -4 119.5 -4t105 6t76 22.5t35.5 47.5q-47 -23 -102.5 -32t-114.5 -9q-106 0 -199.5 19.5t-162 69.5t-108.5 135t-42 218zM326 389q0 -41 13 -69.5t35.5 -46t54.5 -24.5t67 -7 q29 0 56.5 6t49 21.5t33.5 42t12 69.5q0 39 -14.5 66.5t-36 46t-49 26.5t-53.5 8q-20 0 -49 -6t-56 -21.5t-45 -42t-18 -69.5z" />
<glyph unicode="h" horiz-adv-x="1136" d="M0 399q0 219 3 366.5t20.5 237t53.5 127t101 37.5q55 0 87 -23.5t49.5 -71.5t23.5 -121.5t8 -172.5q39 39 90 63.5t133 24.5q162 0 256.5 -50t142.5 -137t59 -204q9 -99 9 -211v-41q-2 -86 -38 -137q-34 -50 -86 -70q-38 -14 -81 -15q-15 0 -31 2q-60 7 -109.5 36 t-82.5 77q-29 42 -29 93q0 8 1 16q0 37 7 103q4 42 4 85q0 23 -1 47q-4 66 -26.5 114.5t-80.5 50.5h-5q-134 0 -134 -225v-13q-2 -119 -18.5 -194.5t-43 -118.5t-59.5 -58.5t-65 -15.5q-72 0 -115 97.5t-43 301.5z" />
<glyph unicode="i" horiz-adv-x="436" d="M-1 609v11q-1 80 13 134q14 58 48 83t100 25q59 0 94 -16.5t53.5 -65.5t22.5 -139q3 -60 3 -147q0 -43 -1 -93q0 -123 -14.5 -201.5t-37 -122.5t-53 -60.5t-65.5 -16.5q-70 0 -111 97.5t-47 301.5q-4 123 -5 210zM43 1124q41 41 125 41q51 0 87 -19.5t55.5 -48 t20.5 -62.5v-4q-1 -31 -17 -59q-18 -30 -55.5 -49.5t-94.5 -19.5q-82 0 -123 41q-40 40 -40 88q0 50 42 92z" />
<glyph unicode="j" horiz-adv-x="432" d="M-514 -194q2 44 22.5 80t59.5 60q36 21 87 21h9q61 -4 120 -6h16q50 0 92 11q47 14 76.5 54t33.5 124q1 65 1 121v53q-1 77 -1 161q0 51 -2 117v18q0 56 10 104q13 56 48.5 95t111.5 39q57 0 91 -25.5t50.5 -90t19.5 -176.5q1 -37 1 -81q0 -87 -4 -202v-66t-1 -89t-1 -83 v-45q-10 -154 -69.5 -231.5t-152.5 -107.5q-91 -29 -206 -29h-8q-119 1 -248 3q-55 0 -90 27t-52 64q-14 32 -14 71v9zM43 1125q41 42 125 42q78 0 119 -41t43 -91v-5q0 -47 -39 -86q-41 -41 -127 -41q-82 0 -123 41q-40 40 -40 88q0 50 42 93z" />
<glyph unicode="k" horiz-adv-x="1179" d="M0 401q0 219 2 366.5t17.5 237t50 127t100.5 37.5q49 0 80 -21.5t48 -68.5t24.5 -121.5t7.5 -183.5q111 92 293 92q94 0 178 -21.5t145.5 -62.5t95.5 -100q32 -56 31 -125v-8q-2 -92 -58.5 -166t-152.5 -111q29 4 49 0q86 -16 126 -64q33 -39 33 -79q0 -9 -2 -19 q-8 -50 -66 -84q-43 -27 -115 -27q-24 0 -51 3q-55 6 -125 22.5t-140.5 44t-137 67.5t-116.5 91q-10 -68 -25.5 -111.5t-35.5 -69.5t-46 -35t-52 -9q-72 0 -115 97.5t-43 301.5zM436 526q0 -47 36 -89t116 -42q43 0 69.5 10.5t43 29t23.5 41t7 46.5v5q0 51 -38 82 q-40 32 -109 32q-66 -2 -107 -32.5t-41 -82.5z" />
<glyph unicode="l" horiz-adv-x="487" d="M-4 756v32q0 144 16 252q18 120 62.5 191.5t124.5 79.5q84 -4 127 -70.5t57 -186.5q10 -84 10 -191q0 -46 -2 -95q-6 -166 -18 -367q-8 -123 -25.5 -201.5t-42 -122.5t-55.5 -60.5t-66 -16.5q-70 0 -113.5 97.5t-58.5 301.5q-14 193 -16 357z" />
<glyph unicode="m" horiz-adv-x="1456" d="M0 578q0 20 3 68t17.5 95t43 84t81.5 37t86 -31.5t52 -89.5q23 41 77 80t148 41h8q70 0 121 -32q53 -34 88 -93q45 68 102.5 96.5t137.5 28.5q106 0 181 -50t121 -137q45 -87 65 -204q18 -106 18 -227v-25q-2 -86 -33 -136q-31 -51 -77 -71q-34 -15 -72 -15q-13 0 -26 2 q-52 7 -97.5 35.5t-74 77t-28.5 109.5v141.5t-8 130t-23.5 95.5t-46.5 39t-51 -28t-25 -95q0 -61 1.5 -134t3.5 -151v-13q1 -77 -21 -124q-24 -52 -62 -72q-28 -15 -61 -15q-11 0 -22 2q-45 7 -83 37t-62 78q-21 42 -22 92q0 8 1 17q0 37 2 103q1 22 1 43q0 43 -3 87 q-4 66 -18.5 114t-45.5 53q-25 2 -39 -17.5t-20 -53.5t-8 -79t-2 -96t1 -117v-9q1 -59 -11 -113q-12 -58 -47 -97t-111 -39q-57 0 -90 30.5t-50 99.5q-16 68 -19 178q-2 66 -2 150q0 56 1 120z" />
<glyph unicode="n" horiz-adv-x="1140" d="M0 578q0 20 3 68t17.5 95t43 84t81.5 37t95.5 -31.5t58.5 -89.5q14 18 32.5 40t46.5 40.5t67 29.5t96 11q162 0 261 -50t153.5 -136t70.5 -204q14 -105 14 -223v-30q-2 -86 -36 -136q-32 -51 -82 -71q-37 -15 -78 -15q-14 0 -29 2q-57 7 -105 35q-48 30 -80 78 q-28 43 -28 96v13q0 37 3 105q1 18 1 36q0 48 -6 96q-8 64 -34.5 113.5t-84.5 49.5h-5q-74 -1 -108 -61q-33 -59 -32 -172v-13q0 -51 1 -117v-8q1 -62 -13 -114q-14 -56 -51 -95t-113 -39q-57 0 -90 30.5t-50 98.5q-16 67 -19 177q-2 66 -2 150q0 56 1 120z" />
<glyph unicode="o" horiz-adv-x="1144" d="M0 442v13q0 93 26 160q28 71 76 118t108 74t123.5 39t124 15t107.5 3q92 0 179 -23.5t155 -76.5t109 -138q39 -81 39 -197v-11q-2 -119 -40 -199t-102.5 -129t-150.5 -69.5t-181 -20.5q-121 0 -224 19.5t-180 69.5t-122 135t-47 218zM360 389v-6q0 -67 46 -103 q48 -38 139 -38q72 0 124 33.5t52 105.5q0 80 -55.5 113.5t-124.5 33.5q-27 0 -57.5 -6t-57.5 -21.5t-45.5 -42t-20.5 -69.5z" />
<glyph unicode="p" horiz-adv-x="1161" d="M0 453.5q0 146.5 13.5 236.5t47 129t99.5 39q47 0 76.5 -16.5t48.5 -57.5q59 41 128.5 59.5t141.5 18.5q63 0 150.5 -9t167 -50t133.5 -125q53 -81 53 -227v-11q-2 -133 -42 -218t-108.5 -135t-162 -69.5t-199.5 -19.5q-59 0 -114.5 9t-102.5 32q-6 -180 -48 -264 t-108 -84q-35 0 -65.5 16.5t-54 60.5t-37 122.5t-15.5 201.5q-2 215 -2 361.5zM412 379q0 -43 12 -69.5t33.5 -42t49 -21.5t56.5 -6q70 0 121 32q49 30 49 109v6q-2 43 -20.5 69.5t-44 42t-54 21.5t-49.5 6q-27 0 -54.5 -8t-49 -26.5t-35.5 -46t-14 -66.5z" />
<glyph unicode="q" horiz-adv-x="1157" d="M0 440v11q0 146 52 228q54 85 134 126t167 49t151 8h13q65 0 129 -18q69 -19 128 -60q35 76 125 76q66 0 99.5 -39t47 -129t13.5 -236.5t-2 -361.5q-2 -123 -15.5 -201.5t-37 -123.5t-54 -60.5t-65.5 -15.5q-66 0 -108 84t-48 264q-47 -23 -102.5 -33t-114.5 -10 q-106 0 -199.5 19.5t-162 69.5t-108.5 135t-42 218zM326 387q0 -41 13 -68.5t35.5 -45t54.5 -25.5t67 -8q29 0 56.5 6t49 21.5t33.5 43t12 68.5q0 39 -14.5 67.5t-36 47t-49 26.5t-53.5 8q-20 0 -49 -6t-56 -21.5t-45 -43t-18 -70.5z" />
<glyph unicode="r" horiz-adv-x="1169" d="M-1 611v11q-1 80 13 134q14 58 48 83t100 25q66 -2 101.5 -20.5t51.5 -77.5q53 47 131 73.5t172 26.5t178.5 -21.5t145.5 -62.5t95 -100q32 -56 32 -125v-8q-2 -92 -58.5 -166t-152.5 -111q29 4 49 0q86 -16 126 -64q33 -39 33 -79q0 -9 -2 -19q-8 -50 -66 -84 q-43 -27 -115 -27q-24 0 -52 3q-55 6 -122.5 22.5t-136 43t-134 63.5t-117.5 86q-10 -66 -25 -106.5t-35.5 -65.5t-45.5 -34t-51 -9q-70 0 -111 97.5t-47 301.5q-4 123 -5 210zM438 535q0 -25 8.5 -48.5t27 -43t46.5 -31.5q24 -10 58 -9h12q86 4 113.5 41t29.5 86v5 q0 51 -38 82q-40 32 -109 32q-66 0 -107 -31.5t-41 -82.5z" />
<glyph unicode="s" horiz-adv-x="1179" d="M1 303q5 49 28.5 93t54.5 73q-16 29 -22 67q-2 15 -2 32q0 28 6 61q10 86 71.5 138t152.5 77.5t198.5 25.5t210 -18t189.5 -54t136 -83q35 -35 47 -84q8 -33 8 -66q0 -17 -2 -33q-6 -50 -28.5 -88.5t-57.5 -52.5q25 -4 43.5 -18.5t29.5 -36.5t15 -44q2 -11 2 -21t-2 -19 q-20 -94 -85 -148q-64 -54 -154 -80q-87 -25 -188 -25h-8q-106 1 -211 19.5t-196.5 49t-152.5 65.5q-52 31 -70 76q-15 35 -14 73q0 11 1 21zM389 356q92 -53 166 -77.5t121 -26.5q15 -1 26 -1q20 0 29 4q14 7 7 18.5t-30.5 23.5t-56.5 20q-68 16 -134 24.5t-128 14.5z M426 582q-2 -4 -2 -9q0 -8 7 -17q11 -13 42 -15q164 -14 297 -54q-70 49 -128 80t-134 41q-11 1 -20 1q-22 0 -36 -6q-20 -9 -26 -21z" />
<glyph unicode="t" horiz-adv-x="825" d="M0 993v9q0 65 28 98q30 35 95 51q25 164 78 226.5t131 62.5q74 0 121 -59.5t67 -215.5q98 -4 149.5 -37t51.5 -131q0 -35 -14.5 -60.5t-40 -42.5t-60.5 -28.5t-76 -17.5q-2 -92 -8 -202.5t-18 -244.5q-10 -123 -27.5 -201.5t-41 -122.5t-53.5 -60.5t-65 -16.5 q-70 0 -122 97.5t-68 301.5q-10 133 -15.5 244t-5.5 203q-51 10 -77.5 43t-28.5 104z" />
<glyph unicode="u" horiz-adv-x="1140" d="M0 643q2 86 36 136q34 51 84 71q37 15 79 15q15 0 29 -2q58 -7 106 -35q48 -30 78 -78q29 -46 28 -102v-7q0 -37 -3 -99q-1 -16 -1 -31q0 -45 6 -89q8 -60 35 -104t84 -44h5q74 0 110 54q37 56 39 159q0 51 -2 117v19q0 55 10 104q12 57 48 96t112 39q57 0 89 -30.5 t48 -99t19 -178.5q2 -66 2 -150q0 -56 -1 -119q0 -23 -3 -70t-16 -94t-43 -84t-83 -37t-86 31.5t-49 89.5q-29 -57 -86.5 -89t-171.5 -32q-164 0 -263.5 50t-153.5 136q-53 86 -71 204q-14 96 -15 203q0 25 1 50z" />
<glyph unicode="v" horiz-adv-x="1161" d="M10 565q-11 31 -11 63q0 40 17 78q30 70 88 112q54 39 115 39h9q66 -3 108 -83q12 -25 37.5 -90.5t52.5 -141t51.5 -144t36.5 -101.5q16 35 44 92t59.5 125t67.5 138t69 136q33 62 90 68q8 1 17 1q49 -1 93 -27q52 -32 84 -90q21 -39 20 -78q0 -20 -5 -41 q-14 -51 -44 -118t-71 -135.5t-91 -135t-105.5 -118t-114 -83t-115.5 -31.5q-61 0 -125.5 30.5t-129 98.5t-127 175.5t-120.5 260.5z" />
<glyph unicode="w" horiz-adv-x="1394" d="M0 645q0 86 34 136q34 51 83 71q37 15 77 15q14 0 28 -2q56 -7 104 -35q48 -29 78 -77q29 -45 28 -102v-8q0 -37 -16 -99q-15 -62 -22 -122q-3 -23 -2 -43q0 -33 6 -60q12 -43 61 -43q33 0 47 27t19 65t7.5 84t11.5 83.5t29.5 64.5t63.5 27q41 0 60.5 -26t27.5 -64.5 t10 -83.5t8.5 -84t21.5 -66t50 -27t49.5 19.5t16.5 52.5v14q1 27 -5 60q-8 41 -18 82t-18.5 77.5t-8.5 61.5v7q0 56 30 102q32 48 83 77q50 29 110 36q15 2 30 2q44 1 82 -15q52 -20 87 -70.5t37 -136.5v-32q0 -117 -13 -220q-15 -117 -63.5 -204t-136.5 -137t-229 -50 q-68 0 -110 18.5t-66 40.5q-29 25 -43 60q-2 0 -9.5 -17.5t-28 -38t-57 -40t-98.5 -23.5q-32 -2 -61 -2q-92 0 -157 24q-85 32 -134 110q-50 77 -68 203q-17 114 -16 273v35z" />
<glyph unicode="x" horiz-adv-x="1173" d="M0 207q-1 10 -1 19q-1 35 11 68q14 42 53 71q18 14 40 29.5t47 33.5q-25 16 -42.5 28.5t-25.5 18.5q-60 47 -70 103q-3 18 -3 34q-1 37 15 72q22 51 72 93q48 41 106 65q55 23 114 23h4q60 -1 106 -38q27 -23 59.5 -49t71.5 -59q59 41 103.5 70.5t60.5 39.5q56 33 105 33 q9 0 18 -1q57 -7 103 -44t76 -94t38 -117q3 -19 3 -38q0 -40 -12 -78q-18 -54 -67 -84q-18 -12 -43 -25q33 -29 57.5 -52.5t40.5 -37.5q29 -29 31 -67v-7q-1 -35 -17 -69q-18 -38 -51.5 -70.5t-75.5 -52t-87 -20.5h-3q-43 0 -81 26q-37 27 -92.5 63.5t-120.5 77.5 q-111 -53 -201 -98t-129 -64q-23 -11 -46 -11l-28 4q-37 11 -65.5 42t-49 74t-24.5 88z" />
<glyph unicode="y" horiz-adv-x="1136" d="M0 645q2 86 36 136t84 71q37 15 79 15q14 0 29 -2q57 -7 105 -35.5t79 -76.5q28 -45 28 -102v-8q0 -37 -3 -99q-1 -17 -1 -33q0 -45 6 -88q9 -58 35.5 -102.5t83.5 -44.5h5q74 0 110 54q37 55 39 159q0 51 -2 117v19q0 55 10 103q12 56 48 95t112 39q57 0 89 -30.5 t48 -98t19 -177.5q2 -66 2 -150q0 -55 -1 -119v-66t-1 -89t-1 -83v-45q-10 -156 -69.5 -232.5t-152.5 -107.5q-86 -29 -195 -29q-9 0 -18 1q-120 2 -249 4q-55 0 -90 26.5t-51 63.5q-14 33 -14 71v10q2 44 22.5 79.5t58.5 59.5q36 21 88 21h9q61 -4 119.5 -4t104.5 6.5 t76 22.5t36 47q-27 -18 -90.5 -30.5t-143.5 -12.5h-24q-145 0 -234 46q-96 50 -146 138t-65 207q-11 93 -11 196q0 29 1 58z" />
<glyph unicode="z" horiz-adv-x="1173" d="M-1 658v5q1 51 19 94q20 46 57.5 76.5t94.5 30.5h676q14 0 31 -6q57 -14 96 -62t51 -106q5 -23 5 -47q1 -35 -11 -71q-18 -60 -74 -97q-12 -8 -43 -23.5t-66.5 -33t-69.5 -33.5t-54 -27h58.5h66t59.5 1t37 1h6q40 0 70 -24q32 -26 48.5 -66.5t17.5 -87.5v-5 q0 -44 -16 -83q-16 -41 -50.5 -67.5t-89.5 -26.5h-779q-55 0 -88 48t-41 110q-2 17 -2 34q0 44 14 86q20 60 72 82q25 10 59.5 22.5t71.5 24t72 22.5t61 22q-10 0 -30.5 -1t-48 -1h-56h-53.5q-55 0 -93 31.5t-57.5 77.5t-20.5 100z" />
<glyph unicode="&#xa1;" horiz-adv-x="653" d="M0 -295q0 -74 42 -123t105.5 -72.5t137 -22.5t135 27t99.5 76t32 124q-4 53 -12.5 128.5t-17.5 161.5t-18 174.5t-18 165.5q-10 96 -44.5 160t-82 94.5t-99.5 28.5t-99 -37t-80 -101.5t-41 -166.5q-4 -59 -10 -141t-12.5 -167t-11.5 -167.5t-5 -141.5zM68 799 q0 -53 57 -91t139 -38t139.5 38t57.5 91t-57.5 90t-139.5 37t-139 -37t-57 -90z" />
<glyph unicode="&#xa2;" horiz-adv-x="727" d="M0 672q0 70 25.5 116t67.5 74.5t94.5 40.5t105.5 15q12 45 33.5 61t42 11t36 -27.5t15.5 -57.5q80 -20 139 -74.5t64 -154.5q0 -31 -31 -44.5t-71 -12t-76 17.5t-42 45q-4 23 -24 35q-10 -37 -19.5 -77t-19.5 -77q37 10 45 19q27 25 60.5 29.5t61.5 -7.5t41 -38.5 t-3 -61.5q-12 -20 -39 -36.5t-60.5 -28t-72.5 -18.5t-74 -7v-2q-12 -33 -29.5 -50.5t-34 -17.5t-28.5 19.5t-12 58.5q-199 41 -195 250zM197 641q-3 -38 20 -61q8 33 16.5 70.5t16.5 76.5q-23 -10 -38 -30.5t-15 -55.5z" />
<glyph unicode="&#xa8;" horiz-adv-x="714" d="M205 993q0 37 21 62.5t50 25.5t50.5 -25.5t21.5 -62.5t-21.5 -62.5t-50.5 -25.5t-50 25.5t-21 62.5zM367 993q0 37 21 62.5t50 25.5q31 0 51.5 -25.5t20.5 -62.5t-20.5 -62.5t-51.5 -25.5q-29 0 -50 25.5t-21 62.5z" />
<glyph unicode="&#xa9;" horiz-adv-x="1705" d="M266 1042q-6 37 4.5 81t46.5 73q16 14 37 25.5t37 21.5q23 10 45.5 23.5t26.5 48.5v18q6 -6 21.5 -25.5t7.5 -37.5q-4 -10 -19.5 -22.5t-26.5 -18.5q-18 -12 -39.5 -25.5t-40 -29t-29.5 -34t-7 -40.5q4 -35 33.5 -38t50.5 3q37 8 62.5 27.5t45 44t36.5 50t40 44.5 q18 16 42 32.5t48 22.5q27 6 59.5 5t63.5 -11t57.5 -31.5t42.5 -58.5t0 -75t-47 -79q-10 -12 -19 -22t-5 -27q4 -12 16 -19t21 -12q49 -6 102 21q31 16 65.5 37.5t65.5 17.5q14 -4 35.5 -13t40 -24.5t33 -34t18.5 -38.5q8 -39 -3 -76t-11 -72q0 -10 6 -19.5t13 -18.5 t12.5 -19t5.5 -21q0 -8 -12.5 -18t-10.5 -21q0 -8 5 -15t9 -13q4 -12 -9 -26.5t-11 -22.5q10 -16 20.5 -24.5t1.5 -25.5q-14 -23 -14 -38q55 31 87 54t40 58q0 6 -1 13.5t-5 11.5q-12 6 -23 -8q-2 -6 -4 -14.5t-6 -8.5q-8 0 -5 15.5t5 19.5q8 18 25.5 18t27.5 -12 q12 -18 1 -44t-21 -38q-8 -10 -22.5 -19.5t-26.5 -19.5q-14 -10 -31.5 -21.5t-40.5 -21.5v-12q37 23 64 -4q18 -18 18 -40t-11.5 -38t-30.5 -25.5t-40 0.5q-8 -43 -53 -70.5t-88 -35.5q-80 -16 -152 -10q-49 2 -83 21.5t-54 47.5q-10 -14 -21.5 -21t-29.5 -12 q-33 -4 -48.5 15.5t-16.5 45t14.5 47.5t44.5 19q-4 10 -4 18.5t-5 16.5q-29 10 -55 21.5t-49 23.5q-25 18 -18 41q2 14 12 22.5t22.5 8.5t22.5 -9t12 -28q-2 -8 -7 -4t-12 11t-15.5 11.5t-16.5 -4.5q-8 -10 -1 -21t19 -19q16 -10 36 -17.5t42 -13.5q-4 2 -4 8q12 6 13 17.5 t-9 21.5q-10 6 -21.5 9t-15.5 13q-4 8 1.5 14.5t11.5 13.5t11 15.5t-1 18.5q-10 16 -31.5 24.5t-32.5 30.5q-4 16 3.5 28.5t17.5 26.5q12 16 6 28.5t-20.5 23t-31 18.5t-24.5 19q-29 29 -31 68.5t15 70.5q6 8 17.5 19.5t21.5 23.5t13 25.5t-7 25.5q-8 8 -23 8 q-25 -6 -48 -24.5t-48 -32.5q-37 -27 -78 -28t-75 9q-29 8 -60 29t-39 57zM276 1098q-2 -29 4.5 -60.5t36.5 -50.5q41 -25 93.5 -29t97.5 25q14 8 32.5 21.5t37 23.5t36 13t27.5 -9q14 -14 13 -27.5t-9 -25.5t-20.5 -24.5t-18.5 -24.5q-16 -25 -17 -66t27 -69 q8 -6 21.5 -13.5t27 -15.5t23.5 -19.5t10 -27.5q0 -8 -6 -16.5t-12 -15.5t-11 -15t-3 -19q4 -16 19.5 -24.5t25.5 -12.5q2 35 27.5 70t62.5 51q12 4 22.5 8.5t26.5 -0.5q37 -6 74 -15t71 -38q-4 39 -18 78t-49 68q-29 20 -61.5 15t-65.5 -7q-18 -4 -40 -4t-38 4 q-27 6 -40 31.5t-11 50.5q2 23 17.5 44t33.5 41.5t37.5 40t30.5 40.5q14 35 3.5 64.5t-18.5 37.5q-18 20 -41.5 30.5t-48.5 4.5q-18 -4 -40.5 -16.5t-45 -28t-42 -31.5t-32.5 -31q-23 -29 -57.5 -50t-69.5 -23q-10 -2 -26.5 -3t-26.5 5q-12 6 -21.5 21.5t-9.5 27.5 q0 29 15.5 49t38 37.5t49 33t45.5 33.5q16 14 20 25.5t-14 34.5q2 -25 -13.5 -42.5t-39 -31.5t-51 -28.5t-48.5 -32.5q-18 -16 -28 -39t-13 -43zM549 1155q23 18 47.5 37.5t49 32t51 14.5t51.5 -12q16 -10 35.5 -29.5t19.5 -69.5q0 -25 -13.5 -44t-31 -38.5t-35.5 -39 t-33 -39.5q-4 -8 -8 -19.5t-4 -19.5q-4 -12 3 -31.5t13 -30.5q6 -6 17.5 -11t19.5 -7q23 -2 49.5 1t53.5 7q14 2 32.5 3t30.5 -3q53 -14 75.5 -65.5t31.5 -106.5q6 31 20 60.5t28.5 55t28 45t17.5 27.5q10 16 26.5 33t34 25t35.5 5t33 -24q-4 12 -6 25.5t-11 24.5 q-14 16 -39.5 30.5t-46.5 24.5q-37 12 -86 -15q-35 -23 -74.5 -42t-80.5 -15q-14 2 -33 13.5t-25 33.5q-4 14 8.5 28.5t22.5 24.5q20 25 37.5 57t13.5 60q-4 29 -22.5 51.5t-43 38t-53 22.5t-51.5 5q-23 0 -46.5 -4.5t-43.5 -20.5q-33 -23 -57.5 -47t-40.5 -51zM710 336 q1 -14 9 -27q8 -14 26.5 -16t30.5 8q6 4 15.5 11t15.5 20q2 4 6 -4.5t6 -12.5q23 -25 51.5 -40t73.5 -19q72 -4 140.5 7t113.5 46q10 10 21.5 24.5t11.5 35.5q0 6 -4 16t-6 18q-2 4 -2 9.5t-5 9.5q-4 20 -8 37q-29 -16 -58.5 -30.5t-53.5 -25.5q-10 -6 -12.5 -1.5t8.5 10.5 q27 16 55.5 29.5t60.5 29.5q-2 10 -2 21.5t-2 21.5v33q-4 8 -4 17v18q-2 10 -4 18l-4 16q-6 16 -17.5 24.5t-21.5 16.5q25 16 16.5 44t-18.5 53q-27 -14 -47.5 -28.5t-48.5 -33.5q-8 -6 -17.5 -15t-15.5 -13q-12 -4 -19 6q-23 27 -59.5 42t-64.5 23q-25 4 -32 2t-18 -18 q-12 -27 -4 -53.5t29 -53.5q-29 -37 -39 -81t-12 -89q4 0 9 -2t9 -4q37 -8 88 -14t97 -12q16 -4 17 -9.5t-11 -7.5q-49 6 -103.5 13.5t-105.5 19.5v-14v-27.5t-6 -22.5q-4 -4 -17.5 3.5t-17.5 11.5l-4 8t-2 10q-16 0 -26.5 -9t-14.5 -22.5t-3 -27.5zM716 529.5 q15 -5.5 27 -15.5q20 -20 11 -45q-2 -2 -9 -2q3 -6 3 -12q10 -2 21 -4t22 -7q2 43 12 85t39 83q-31 29 -33 64t16 61q-39 -8 -68.5 -39.5t-37.5 -66.5q-4 -10 0 -16.5t10 -16.5q12 -25 -10 -47q-18 -16 -3 -21.5zM729 332q-6 14 1 22t18.5 11.5t21.5 -1t14 -16.5 q-12 -4 -21 -8t-9 -25q-8 10 -1 20.5t15 14.5q-10 14 -25.5 6t-13.5 -24zM754 436q4 -12 7 -24.5t7 -24.5q8 -10 18 -10v25.5t5 25.5q-10 2 -18.5 4t-18.5 4zM770 186q0 6 2 10.5t4 8.5q6 6 17 6h10q4 -2 5 -4t3 -4v22q0 6 4 6q0 2 2 2q6 0 6 -2q2 0 2 -6v-61q0 -4 -2 -4 q0 -4 -6 -4h-2v4q-4 0 -4 4v4l-4 -6q-4 -2 -6 -2q-2 -4 -8 -4t-9 4q-2 2 -4 2t-4 2q0 4 -1 5t-1 3q-4 6 -4 14zM784 184q0 -6 2 -8q0 -6 7 -6q0 -2 6 -2q4 0 4 2q6 0 6 6q2 2 2 8q0 8 -2 11q0 6 -6 6q0 2 -4 2q-6 0 -8 -2q0 -4 -2.5 -4t-2.5 -2q-2 -2 -2 -11zM836 184 q0 10 4 17l8 8l8 4t8 2q2 0 3 -2t5 -2q2 0 3.5 -1t5.5 -1q2 -6 4 -6v-6v-4h-4h-4l-3 2q-2 2 -2 4t-4 2l-4 2q-6 0 -12 -6q-2 -2 -2 -13v-6v-4q0 -2 2 -2q4 -2 6 -4h6q4 0 4 2q6 0 6 6q2 0 3 2h4v2q2 0 4 -2q0 -2 2 -2t2 -4l-2 -2q-2 0 -2 -2q-2 0 -2 -2t-2 -4q0 -2 -2 -2h-7 q-4 -4 -8 -4q-10 0 -14 2t-8 6q-2 4 -4 9t-2 11zM856 555q6 16 32.5 24.5t49.5 4.5q6 0 16.5 -3t14.5 -8q8 -12 0 -24q12 -14 9 -38t-17 -40q-16 -16 -40 -26.5t-44 -6.5q12 4 25 7.5t22 13.5q-27 -4 -46.5 12t-11.5 47q4 12 14.5 23.5t26.5 15.5q-14 0 -27.5 -1t-23.5 -1z M881 524q-10 -29 2 -43t32 -14q18 -2 32 7t19 23.5t3 28t-15 21.5q-2 0 -4 1t-6 1q-4 2 -14 2q-14 0 -29.5 -8t-19.5 -19zM897 172v12v13q2 4 4 5t2 3q2 4 10 6q2 0 4.5 2t6.5 2t6 -2t6 -2q2 -2 3 -2t5 -4q0 -2 4 -10q0 -2 2 -4.5t2 -6.5t-2 -6t-2 -6l-4 -8l-8 -4 q-4 -4 -12 -4t-11 4q-6 0 -10 4q0 2 -6 8zM911 176q2 -6 4 -6q4 -2 9 -2q4 0 8 4q6 6 6 12q0 8 -6 13q-4 6 -8 6t-9 -2q2 0 -4 -6v-11v-8zM924 508q6 8 14 8q12 0 8 -12q0 -10 -10 -10q-12 4 -12 14zM938 510l2 2q2 2 4 2l2 -4q0 -2 -1 -2t-1 -2v-2q-6 0 -6 6zM954 162 q0 2 2 6l15 18l-10 15q-4 2 -5 8v2q4 0 4.5 2t2.5 2l2 -4q2 0 6 -6l8 -10l8 10v4l2 2q4 0 4 2t2 2l2 -4q2 0 4 -2v-4q0 -2 -2 -2t-2 -2l-10 -15l10 -18q6 -6 7 -6l-3 -2q-4 -4 -6 -4h-2v4q-4 0 -4 1t-2 1l-8 16l-10 -16l-4 -2q-2 -4 -4 -4h-3q-2 0 -2 4q-2 0 -2 2z M977 438.5q2 14.5 4 14.5v-14.5t6 -12.5q8 -4 13.5 2t17.5 6q6 -23 23.5 -16.5t23.5 20.5q10 -10 18 -2q8 6 0 19q18 -8 7 -21q-9 -12 -25 -4q-8 -16 -27 -18q-10 0 -18 8q-4 4 -6 8q-8 0 -13.5 -6t-15.5 -2t-8 18.5zM1006 143v2q4 2 6 2h2h4h2l2 5v2l4 2v4l-16 41l-2 2 q-2 0 -2 2q0 4 2 4h2q0 2 2 2v2l2 2q2 0 4 -2v-2q2 -2 2 -6l14 -33l10 31q0 6 3 6v2q4 0 4 2t2 2v-2q0 -2 4 -2v-2q2 0 2 -4l-2 -2v-2l-19 -47q-4 -4 -4 -11q-4 0 -4 -2t-2 -2q-2 -2 -10 -2h-8q-4 2 -4 6zM1012 672q18 18 39.5 44.5t45 51.5t45 41t38.5 14q8 -2 17 -7 t17 -15q4 18 12.5 45.5t0.5 50.5q-6 20 -24.5 28.5t-35.5 2.5q-16 -4 -33.5 -19.5t-23.5 -27.5q-35 -51 -64.5 -103.5t-33.5 -105.5zM1026 596v10t2 6v-25.5t2 -29.5q0 -23 4 -45.5t10 -40.5q-14 23 -15 56.5t-3 68.5zM1034 379q0 12 19 16q24 4 24 -8q4 -4 -3 -3t-17 -3 q-10 -2 -15.5 -5t-7.5 3zM1034 686q23 20 42.5 33.5t39.5 30.5q14 10 30.5 20t27.5 0q-4 0 -7 -2q-4 -2 -5 -4t-3 -4q16 -25 20.5 -52.5t-12.5 -50.5q33 -27 36 -61.5t7 -65.5q2 -12 3 -26.5t1 -26.5q4 2 6.5 4t6.5 2q0 8 1 15.5t3 17.5q4 8 8 13.5t4 11.5q2 12 -5 16 t-11 14q-10 10 -3 19.5t13 21.5q8 14 -1 23.5t-9 26.5q-4 10 8 20t12 20q-2 14 -15 28.5t-18 31.5q-2 6 1.5 14t-1.5 15q-4 12 -20 19t-27 5q-12 -2 -30.5 -17.5t-37 -36t-35.5 -42t-30 -33.5zM1038 369q1 2 21 8q25 4 24 0q0 -4 -22 -4q-8 -2 -15.5 -5t-7.5 1zM1061 160v4 v6h4l2 2l4 -2h2q2 -2 2 -6t-2 -4q0 -4 -6 -4h-2zM1070 518q1 19 13 33q-4 4 -7 16.5t7 14.5q29 4 58.5 1t42.5 -28q-4 2 -13 2l3 -2q10 -16 9 -36.5t-18 -35.5q12 0 27 11q-2 -6 -8 -10.5t-13 -8.5q-18 -10 -44 -9t-44 19q-14 14 -13 33zM1081.5 527.5q-4.5 -17.5 8.5 -33.5 q18 -23 38.5 -20t34 17.5t12.5 34t-26 33.5q-10 4 -23.5 2t-25.5 -6q-14 -10 -18.5 -27.5zM1090 184q0 10 2 17q2 2 4 3t4 5l8 4t8 2q2 0 4 -2t4 -2t4 -1t5 -1q2 -6 6 -6v-6v-4h-6h-3h-2q-2 0 -2 2q0 6 -4 6h-2q-2 0 -4 2q-8 0 -10 -6q-4 -2 -4 -13v-6q0 -2 2 -4q0 -2 2 -2 l4 -4h6q6 0 6 2q4 0 4 6h4v2q2 0 2.5 1t2.5 1l4 -2q0 -2 1 -2t1 -4l-2 -4l-6 -6l-3 -2h-4q-4 -4 -10 -4q-10 0 -22 8q-4 12 -4 20zM1122 516q0 10 11 10q10 0 10 -10q0 -12 -10 -12t-11 12zM1133 518q0 -2 2 -2q6 0 6 6h-2q-2 0 -2 1t-2 1l-2 -2v-4zM1149 172v12v13q2 4 4 5 t2 3q2 4 10 6q2 0 4 2t7 2q4 0 6 -2t6 -2q2 -2 3 -2t5 -4q2 -2 2 -4t4 -6q0 -2 1 -4.5t1 -6.5t-1 -6t-1 -6q-2 -2 -6 -8l-8 -4q-4 -4 -12 -4t-11 4q-6 0 -10 4q0 2 -6 8zM1163 176q2 -6 4 -6q4 -2 9 -2q4 0 8 4q6 6 6 12q0 8 -6 13q-4 6 -8 6t-9 -2q2 0 -4 -6v-11v-8z M1212 164v41q0 4 2 6l3 2q2 0 2 1t2 1l2 -4q4 -2 4 -6v-2q2 2 3 4t5 4h8h8q2 -2 3 -4t6 -4q0 4 4 8h8h12q4 -4 4 -8q4 -2 4 -10v-29q0 -2 -4 -4l-2 -2q0 -2 -2 -2q-4 0 -4 2t-2 2v4v24v7q-2 0 -2 4v2q-4 0 -4 1t-2 1t-2 -1t-4 -1q-2 0 -2 -6q-2 0 -2 -11v-20q0 -2 -5 -4 l-2 -4q-2 0 -4 2q-2 0 -2 2q-2 2 -2 4v22v9q0 6 -2 6h-2q-2 0 -4 2q-6 0 -8 -6q0 -2 -1 -5.5t-1 -7.5v-20v-4q-4 0 -4 -2t-2 -2t-4 2q-2 0 -3 2q0 2 -1 2t-1 2zM1219 461l4 -31q4 4 8 6t8 6q-8 14 -10 27q-2 -2 -5 -4t-5 -4zM1223 420q4 -12 9 -23.5t7 -25.5q20 -10 36.5 -1 t25 24.5t6.5 32.5t-19 28q-10 4 -22.5 4t-22.5 -6q2 -4 5 -9.5t-1 -7.5q-2 -6 -10 -9t-14 -7zM1245 393q2 20 19.5 29.5t31.5 -2.5q-8 0 -18 -1t-14 -7q16 -1 20 -15q-23 12 -39 -4z" />
<glyph unicode="&#xab;" horiz-adv-x="686" d="M0 582q0 18 19.5 39.5t46 43t56.5 39t50 27.5q39 18 74 6t50 -38.5t1 -58.5t-74 -50q-29 -10 -46 -15.5t-34 -13.5q6 -6 18.5 -13t25 -13.5t23.5 -11.5t17 -7q39 -20 55.5 -48t9.5 -49.5t-37 -29.5t-85 8q-27 8 -57.5 30t-55 48.5t-41 55t-16.5 51.5zM279 573q0 18 19 40 t46 43.5t56.5 39t50.5 27.5q39 18 73.5 6t50 -38.5t1 -58.5t-73.5 -50q-29 -10 -47.5 -15.5t-32.5 -13.5q6 -6 18.5 -13.5t24.5 -13.5t23.5 -11t17.5 -7q39 -20 55.5 -48t9 -49.5t-37 -29.5t-84.5 8q-27 8 -58 29.5t-55.5 48.5t-40.5 55.5t-16 50.5z" />
<glyph unicode="&#xad;" horiz-adv-x="905" d="M102 478q2 50 37 93t109 43h321q43 0 73 -20.5t45 -51t16.5 -67.5t-13 -67.5t-43.5 -51t-72 -20.5q-66 0 -115.5 1t-92.5 2t-80 2t-74 1q-55 0 -84 43t-27 93z" />
<glyph unicode="&#xb4;" horiz-adv-x="747" d="M203.5 944q-1.5 21 21.5 33t83.5 39.5t123.5 99.5q29 33 57.5 20.5t44 -45t9.5 -73.5t-45 -68q-23 -14 -57.5 -23t-71.5 -14.5t-72 -5.5t-55 6q-37 10 -38.5 31z" />
<glyph unicode="&#xbb;" horiz-adv-x="686" d="M10.5 632q-14.5 32 1 58.5t50 38.5t73.5 -6q20 -10 50 -27.5t56.5 -39t46 -43t19.5 -40.5q0 -23 -16.5 -51t-41 -55t-55 -48.5t-57.5 -29.5q-55 -16 -84.5 -8t-37 29.5t9 49.5t55.5 48q6 2 17.5 7t23.5 11t24.5 13.5t18.5 13.5q-14 8 -32.5 13t-47.5 16q-59 18 -73.5 50z M288.5 640q-14.5 32 1 58.5t50.5 39t74 -6.5q20 -10 50 -27.5t56.5 -39t46 -43t19.5 -39.5q0 -23 -16.5 -51.5t-41 -55t-55.5 -48t-57 -30.5q-55 -16 -85 -8t-37 29.5t9 49.5t55 48q6 2 17.5 7t24 11.5t24.5 13.5t18 13q-16 8 -33.5 13.5t-46.5 15.5q-59 18 -73.5 50z" />
<glyph unicode="&#xbf;" horiz-adv-x="1136" d="M0 -145q-6 127 16.5 202.5t61 123t85 76t86 59t64.5 73.5t20 119q-2 45 31 76t84 48t110.5 19.5t111 -8t87 -35t35.5 -63.5q2 -84 -27.5 -141.5t-72.5 -99.5t-94.5 -74.5t-94.5 -67.5t-71.5 -79t-26.5 -107q2 -57 36 -89t76 -26t81 54t49 151q6 45 36.5 72.5t73.5 40 t92.5 8t91.5 -23.5t69.5 -54t27.5 -86q0 -135 -41 -234.5t-111.5 -164t-163 -97.5t-196.5 -39q-129 -6 -226.5 21.5t-163 79t-99 121t-37.5 145.5zM323 803q0 27 18.5 49.5t50.5 40t74 27.5t91 10t91 -10t73.5 -27.5t50 -40t18.5 -49.5t-18.5 -50.5t-50 -41t-73.5 -27.5 t-91 -10t-91 10t-74 27.5t-50.5 41t-18.5 50.5z" />
<glyph unicode="&#xc0;" horiz-adv-x="1157" d="M0 493.5v73.5q-2 246 29.5 412t98.5 267.5t165 147.5t231 50q119 4 210 -37t154.5 -119t101.5 -190.5t54 -249.5q8 -63 10.5 -155.5t3.5 -186.5t1 -178t2 -129q4 -66 -24.5 -109t-73.5 -63.5t-99.5 -21.5t-100.5 17.5t-77 55.5t-29 92q0 4 -1 23.5t-1 54.5q-47 -4 -96 -7 t-92 1v-21q0 -76 -33 -124t-83 -71.5t-109.5 -24.5t-109.5 16.5t-85 53t-35 85.5q-4 55 -7 115.5t-4 117.5t-1 104.5zM409 1604q-5 41 10 73.5t44 45t57 -20.5q63 -72 123.5 -99.5t83.5 -39.5t22 -32.5t-38 -31.5q-20 -6 -55 -6t-72 5.5t-72 14.5t-57 23q-41 27 -46 68z M455 557q47 -4 100 -6t94 -4q0 20 -1 41.5t-1 44.5q0 113 -30.5 172t-66.5 59t-65.5 -64.5t-29.5 -199.5v-43z" />
<glyph unicode="&#xc1;" horiz-adv-x="1157" d="M0 493.5v73.5q-2 246 29.5 412t98.5 267.5t165 147.5t231 50q119 4 210 -37t154.5 -119t101.5 -190.5t54 -249.5q8 -63 10.5 -155.5t3.5 -186.5t1 -178t2 -129q4 -66 -24.5 -109t-73.5 -63.5t-99.5 -21.5t-100.5 17.5t-77 55.5t-29 92q0 4 -1 23.5t-1 54.5q-47 -4 -96 -7 t-92 1v-21q0 -76 -33 -124t-83 -71.5t-109.5 -24.5t-109.5 16.5t-85 53t-35 85.5q-4 55 -7 115.5t-4 117.5t-1 104.5zM361.5 1530q-1.5 21 21.5 33t83.5 39.5t123.5 99.5q29 33 57.5 20.5t44 -45t9.5 -73.5t-45 -68q-23 -14 -57.5 -23t-71.5 -14.5t-72 -5.5t-55 6 q-37 10 -38.5 31zM455 557q47 -4 100 -6t94 -4q0 20 -1 41.5t-1 44.5q0 113 -30.5 172t-66.5 59t-65.5 -64.5t-29.5 -199.5v-43z" />
<glyph unicode="&#xc2;" horiz-adv-x="1157" d="M0 493.5v73.5q-2 246 29.5 412t98.5 267.5t165 147.5t231 50q119 4 210 -37t154.5 -119t101.5 -190.5t54 -249.5q8 -63 10.5 -155.5t3.5 -186.5t1 -178t2 -129q4 -66 -24.5 -109t-73.5 -63.5t-99.5 -21.5t-100.5 17.5t-77 55.5t-29 92q0 4 -1 23.5t-1 54.5q-47 -4 -96 -7 t-92 1v-21q0 -76 -33 -124t-83 -71.5t-109.5 -24.5t-109.5 16.5t-85 53t-35 85.5q-4 55 -7 115.5t-4 117.5t-1 104.5zM375 1563q8 27 22.5 56.5t34 54t46 42t59.5 17.5q31 2 58.5 -15.5t50 -42t39 -53.5t24.5 -49q8 -25 -7.5 -44t-41 -30.5t-51 -8.5t-37.5 26 q-16 29 -20.5 47t-14.5 33q-12 -12 -17.5 -39t-9.5 -39q-6 -18 -30.5 -23.5t-50 0.5t-44 23.5t-10.5 44.5zM455 557q47 -4 100 -6t94 -4q0 20 -1 41.5t-1 44.5q0 113 -30.5 172t-66.5 59t-65.5 -64.5t-29.5 -199.5v-43z" />
<glyph unicode="&#xc3;" horiz-adv-x="1157" d="M0 493.5v73.5q-2 246 29.5 412t98.5 267.5t165 147.5t231 50q119 4 210 -37t154.5 -119t101.5 -190.5t54 -249.5q8 -63 10.5 -155.5t3.5 -186.5t1 -178t2 -129q4 -66 -24.5 -109t-73.5 -63.5t-99.5 -21.5t-100.5 17.5t-77 55.5t-29 92q0 4 -1 23.5t-1 54.5q-47 -4 -96 -7 t-92 1v-21q0 -76 -33 -124t-83 -71.5t-109.5 -24.5t-109.5 16.5t-85 53t-35 85.5q-4 55 -7 115.5t-4 117.5t-1 104.5zM384 1552.5q-7 32.5 3 66.5t43 46q41 14 63.5 9t40 -14t37 -14t54.5 11q27 12 50 -4t34.5 -45t4 -60.5t-41.5 -50.5q-27 -14 -50.5 -10t-48 11.5t-51 10.5 t-57.5 -12q-31 -16 -52.5 3.5t-28.5 52zM455 557q47 -4 100 -6t94 -4q0 20 -1 41.5t-1 44.5q0 113 -30.5 172t-66.5 59t-65.5 -64.5t-29.5 -199.5v-43z" />
<glyph unicode="&#xc4;" horiz-adv-x="1157" d="M0 493.5v73.5q-2 246 29.5 412t98.5 267.5t165 147.5t231 50q119 4 210 -37t154.5 -119t101.5 -190.5t54 -249.5q8 -63 10.5 -155.5t3.5 -186.5t1 -178t2 -129q4 -66 -24.5 -109t-73.5 -63.5t-99.5 -21.5t-100.5 17.5t-77 55.5t-29 92q0 4 -1 23.5t-1 54.5q-47 -4 -96 -7 t-92 1v-21q0 -76 -33 -124t-83 -71.5t-109.5 -24.5t-109.5 16.5t-85 53t-35 85.5q-4 55 -7 115.5t-4 117.5t-1 104.5zM395 1579q0 37 21 62.5t50 25.5t50.5 -25.5t21.5 -62.5t-21.5 -62.5t-50.5 -25.5t-50 25.5t-21 62.5zM455 557q47 -4 100 -6t94 -4q0 20 -1 41.5t-1 44.5 q0 113 -30.5 172t-66.5 59t-65.5 -64.5t-29.5 -199.5v-43zM557 1579q0 37 21 62.5t50 25.5q31 0 51.5 -25.5t20.5 -62.5t-20.5 -62.5t-51.5 -25.5q-29 0 -50 25.5t-21 62.5z" />
<glyph unicode="&#xc5;" horiz-adv-x="1157" d="M0 493.5v73.5q-2 246 29.5 412t98.5 267.5t165 147.5t231 50q119 4 210 -37t154.5 -119t101.5 -190.5t54 -249.5q8 -63 10.5 -155.5t3.5 -186.5t1 -178t2 -129q4 -66 -24.5 -109t-73.5 -63.5t-99.5 -21.5t-100.5 17.5t-77 55.5t-29 92q0 4 -1 23.5t-1 54.5q-47 -4 -96 -7 t-92 1v-21q0 -76 -33 -124t-83 -71.5t-109.5 -24.5t-109.5 16.5t-85 53t-35 85.5q-4 55 -7 115.5t-4 117.5t-1 104.5zM385 1600q0 45 48 76.5t118 31.5q68 0 115.5 -31.5t47.5 -76.5t-48 -77t-115 -32q-70 0 -118 32t-48 77zM455 557q47 -4 100 -6t94 -4q0 20 -1 41.5 t-1 44.5q0 113 -30.5 172t-66.5 59t-65.5 -64.5t-29.5 -199.5v-43zM512 1583q0 -24 39 -24q16 0 26 7t10 17t-10 17.5t-26 7.5q-39 0 -39 -25z" />
<glyph unicode="&#xc6;" horiz-adv-x="1826" d="M8 502v73q-2 246 30 411t97.5 266.5t164.5 147.5t230 50q139 6 238 -49q51 45 127 47q39 2 124 2h181h187.5t144.5 4q59 4 102 -38t65.5 -106.5t24.5 -140t-18 -141t-63.5 -110t-110.5 -44.5q-43 0 -96.5 -1t-106.5 -1h-103h-89q-70 0 -82 -36q2 -12 2 -24.5t2 -27.5h137 q39 0 82 2q31 0 50.5 -23.5t28.5 -58t7 -76.5t-13.5 -78t-32 -60.5t-48.5 -26.5q-18 0 -44 -1t-54.5 -1h-57.5h-49v-72q2 0 3 -1t3 -1q88 0 212 -1t241 3q68 2 111.5 -24.5t64 -67.5t19.5 -90t-22.5 -93t-63.5 -74t-101 -32q-39 -2 -93.5 -4t-115.5 -3t-127 -1h-124t-104 1 t-73 3q-45 2 -87 11.5t-74 27.5t-50 50t-18 83q0 4 -1 23.5t-1 56.5q-47 -6 -96.5 -9t-94.5 1q2 -6 2 -21q0 -76 -32.5 -124t-83 -71.5t-110 -24.5t-109.5 17.5t-85 53.5t-35 84q-4 55 -7 116.5t-4 119t-1 104.5zM463 563q47 -4 100 -6t94 -4q-2 23 -2 43v43 q0 113 -30.5 172t-66.5 59t-65.5 -64.5t-29.5 -199.5v-43z" />
<glyph unicode="&#xc7;" horiz-adv-x="1171" d="M2 758q8 195 62.5 331t135.5 219t181 115.5t201.5 21.5t194.5 -63.5t162 -140.5t102.5 -208.5t17.5 -270.5q-6 -53 -36 -85t-72 -48.5t-89 -16.5t-86 11.5t-64.5 32t-23.5 49.5q8 166 -131 165q-53 0 -84 -24.5t-48 -65.5t-22.5 -97t-5.5 -120q0 -90 21.5 -149.5 t53.5 -90t70 -33.5t70.5 15.5t55 58t26.5 97.5q2 31 29 50t64.5 25.5t80.5 2.5t80 -20.5t61.5 -44.5t22.5 -64q-2 -55 -28.5 -127t-84 -134.5t-149.5 -105.5t-223 -41q-6 -10 -7 -19.5t17 -9.5q47 -4 69.5 -31.5t13.5 -60.5t-53 -58.5t-128 -21.5q-14 0 -23.5 16.5t-9.5 35 t8 33t29 12.5q18 0 26.5 6t8.5 13t-7.5 14.5t-17.5 7.5q-29 2 -31 25.5t2 47.5q-223 41 -339.5 236.5t-102.5 509.5z" />
<glyph unicode="&#xc8;" horiz-adv-x="1167" d="M0 362v730q0 63 12.5 124.5t40 111.5t71.5 82t109 36q39 2 124 2h181.5h187.5h144q61 0 105.5 -43t67 -106.5t23.5 -138.5t-19.5 -139.5t-64.5 -107.5t-112 -43h-395q-55 0 -71.5 -19.5t-14.5 -70.5h141q41 0 86 2q31 0 50.5 -22.5t27.5 -58t7 -76.5t-12 -77t-31.5 -60.5 t-49.5 -26.5q-20 -2 -50 -3t-61.5 -1t-61 1t-48.5 1q0 -6 -2 -18.5t-1 -25t6 -21.5t20 -9q88 0 209.5 -2t242.5 2q68 2 112 -26.5t64.5 -70.5t19.5 -92.5t-22.5 -94.5t-63.5 -72.5t-102 -28.5q-53 0 -145 -1t-188.5 -1h-180.5t-123 2q-66 2 -109.5 36t-71 85t-40 114.5 t-12.5 126.5zM411 1604q-5 41 10 73.5t44 45t57 -20.5q63 -72 123.5 -99.5t83.5 -39.5t22 -32.5t-38 -31.5q-20 -6 -55 -6t-72 5.5t-72 14.5t-57 23q-41 27 -46 68z" />
<glyph unicode="&#xc9;" horiz-adv-x="1167" d="M0 362v730q0 63 12.5 124.5t40 111.5t71.5 82t109 36q39 2 124 2h181.5h187.5h144q61 0 105.5 -43t67 -106.5t23.5 -138.5t-19.5 -139.5t-64.5 -107.5t-112 -43h-395q-55 0 -71.5 -19.5t-14.5 -70.5h141q41 0 86 2q31 0 50.5 -22.5t27.5 -58t7 -76.5t-12 -77t-31.5 -60.5 t-49.5 -26.5q-20 -2 -50 -3t-61.5 -1t-61 1t-48.5 1q0 -6 -2 -18.5t-1 -25t6 -21.5t20 -9q88 0 209.5 -2t242.5 2q68 2 112 -26.5t64.5 -70.5t19.5 -92.5t-22.5 -94.5t-63.5 -72.5t-102 -28.5q-53 0 -145 -1t-188.5 -1h-180.5t-123 2q-66 2 -109.5 36t-71 85t-40 114.5 t-12.5 126.5zM357.5 1530q-1.5 21 21.5 33t83.5 39.5t123.5 99.5q29 33 57.5 20.5t44 -45t9.5 -73.5t-45 -68q-23 -14 -57.5 -23t-71.5 -14.5t-72 -5.5t-55 6q-37 10 -38.5 31z" />
<glyph unicode="&#xca;" horiz-adv-x="1167" d="M0 362v730q0 63 12.5 124.5t40 111.5t71.5 82t109 36q39 2 124 2h181.5h187.5h144q61 0 105.5 -43t67 -106.5t23.5 -138.5t-19.5 -139.5t-64.5 -107.5t-112 -43h-395q-55 0 -71.5 -19.5t-14.5 -70.5h141q41 0 86 2q31 0 50.5 -22.5t27.5 -58t7 -76.5t-12 -77t-31.5 -60.5 t-49.5 -26.5q-20 -2 -50 -3t-61.5 -1t-61 1t-48.5 1q0 -6 -2 -18.5t-1 -25t6 -21.5t20 -9q88 0 209.5 -2t242.5 2q68 2 112 -26.5t64.5 -70.5t19.5 -92.5t-22.5 -94.5t-63.5 -72.5t-102 -28.5q-53 0 -145 -1t-188.5 -1h-180.5t-123 2q-66 2 -109.5 36t-71 85t-40 114.5 t-12.5 126.5zM387 1563q8 27 22.5 56.5t34 54t46 42t59.5 17.5q31 2 58.5 -15.5t50 -42t39 -53.5t24.5 -49q8 -25 -7.5 -44t-41 -30.5t-51 -8.5t-37.5 26q-16 29 -20.5 47t-14.5 33q-12 -12 -17.5 -39t-9.5 -39q-6 -18 -30.5 -23.5t-50 0.5t-44 23.5t-10.5 44.5z" />
<glyph unicode="&#xcb;" horiz-adv-x="1167" d="M0 362v730q0 63 12.5 124.5t40 111.5t71.5 82t109 36q39 2 124 2h181.5h187.5h144q61 0 105.5 -43t67 -106.5t23.5 -138.5t-19.5 -139.5t-64.5 -107.5t-112 -43h-395q-55 0 -71.5 -19.5t-14.5 -70.5h141q41 0 86 2q31 0 50.5 -22.5t27.5 -58t7 -76.5t-12 -77t-31.5 -60.5 t-49.5 -26.5q-20 -2 -50 -3t-61.5 -1t-61 1t-48.5 1q0 -6 -2 -18.5t-1 -25t6 -21.5t20 -9q88 0 209.5 -2t242.5 2q68 2 112 -26.5t64.5 -70.5t19.5 -92.5t-22.5 -94.5t-63.5 -72.5t-102 -28.5q-53 0 -145 -1t-188.5 -1h-180.5t-123 2q-66 2 -109.5 36t-71 85t-40 114.5 t-12.5 126.5zM404 1579q0 37 21 62.5t50 25.5t50.5 -25.5t21.5 -62.5t-21.5 -62.5t-50.5 -25.5t-50 25.5t-21 62.5zM566 1579q0 37 21 62.5t50 25.5q31 0 51.5 -25.5t20.5 -62.5t-20.5 -62.5t-51.5 -25.5q-29 0 -50 25.5t-21 62.5z" />
<glyph unicode="&#xcc;" horiz-adv-x="555" d="M0 936v167t2 116q2 80 37 128t85 68.5t107.5 15t106.5 -32t82 -72.5t33 -107v-920q0 -90 -33 -154.5t-82 -100.5t-106.5 -43t-106.5 20.5t-83 89t-36 161.5q0 39 -1 113t-2 166t-2 192.5t-1 192.5zM65 1604q-5 41 10 73.5t44 45t57 -20.5q63 -72 123.5 -99.5t83.5 -39.5 t22 -32.5t-38 -31.5q-20 -6 -55 -6t-72 5.5t-72 14.5t-57 23q-41 27 -46 68z" />
<glyph unicode="&#xcd;" horiz-adv-x="555" d="M0 936v167t2 116q2 80 37 128t85 68.5t107.5 15t106.5 -32t82 -72.5t33 -107v-920q0 -90 -33 -154.5t-82 -100.5t-106.5 -43t-106.5 20.5t-83 89t-36 161.5q0 39 -1 113t-2 166t-2 192.5t-1 192.5zM60.5 1530q-1.5 21 21.5 33t83.5 39.5t123.5 99.5q29 33 57.5 20.5 t44 -45t9.5 -73.5t-45 -68q-23 -14 -57.5 -23t-71.5 -14.5t-72 -5.5t-55 6q-37 10 -38.5 31z" />
<glyph unicode="&#xce;" horiz-adv-x="555" d="M0 936v167t2 116q2 80 37 128t85 68.5t107.5 15t106.5 -32t82 -72.5t33 -107v-920q0 -90 -33 -154.5t-82 -100.5t-106.5 -43t-106.5 20.5t-83 89t-36 161.5q0 39 -1 113t-2 166t-2 192.5t-1 192.5zM53 1563q8 27 22.5 56.5t34 54t46 42t59.5 17.5q31 2 58.5 -15.5t50 -42 t39 -53.5t24.5 -49q8 -25 -7.5 -44t-41 -30.5t-51 -8.5t-37.5 26q-16 29 -20.5 47t-14.5 33q-12 -12 -17.5 -39t-9.5 -39q-6 -18 -30.5 -23.5t-50 0.5t-44 23.5t-10.5 44.5z" />
<glyph unicode="&#xcf;" horiz-adv-x="555" d="M0 936v167t2 116q2 80 37 128t85 68.5t107.5 15t106.5 -32t82 -72.5t33 -107v-920q0 -90 -33 -154.5t-82 -100.5t-106.5 -43t-106.5 20.5t-83 89t-36 161.5q0 39 -1 113t-2 166t-2 192.5t-1 192.5zM66 1579q0 37 21 62.5t50 25.5t50.5 -25.5t21.5 -62.5t-21.5 -62.5 t-50.5 -25.5t-50 25.5t-21 62.5zM228 1579q0 37 21 62.5t50 25.5q31 0 51.5 -25.5t20.5 -62.5t-20.5 -62.5t-51.5 -25.5q-29 0 -50 25.5t-21 62.5z" />
<glyph unicode="&#xd1;" horiz-adv-x="1175" d="M0 946v167t2 116q2 92 52 145t118 66.5t135.5 -15t108.5 -100.5q8 -14 25.5 -47t42 -79t55 -102.5t65.5 -117.5q-8 84 -12 149.5t-4 100.5q2 80 40 128t91 68.5t115.5 14.5t116 -33t88 -73t34.5 -105q0 -23 -2 -84.5t-5 -145.5t-6 -181t-7 -192.5t-7.5 -178t-5.5 -138.5 q-6 -129 -47 -206.5t-103.5 -96t-141 27.5t-158.5 167q-25 35 -63 98t-85 141q-2 -41 -6 -73.5t-8 -57.5q-14 -92 -51 -158.5t-83 -103.5t-96.5 -42t-92.5 22.5t-69.5 90t-27.5 163.5q0 39 -1 113.5t-2 165.5t-3 192.5t-2 193.5zM339 1552.5q-7 32.5 3 66.5t43 46 q41 14 63.5 9t40 -14t37 -14t54.5 11q27 12 50 -4t34.5 -45t4 -60.5t-41.5 -50.5q-27 -14 -50.5 -10t-48 11.5t-51 10.5t-57.5 -12q-31 -16 -52.5 3.5t-28.5 52z" />
<glyph unicode="&#xd2;" d="M0 684q0 141 15.5 277.5t70.5 243t163 172t294 65.5q129 0 219 -30t147.5 -83t89 -124.5t46 -155.5t16.5 -177.5t2 -187.5q0 -195 -42 -326t-113.5 -210.5t-168 -113.5t-207.5 -34t-208 38t-168.5 121t-113.5 213t-42 312zM358 608q-2 -43 6.5 -95t29 -96t57.5 -74 t94 -30q59 0 97 26t58.5 68t27.5 96t7 113q0 43 -6 88.5t-26.5 82t-56.5 61t-95 24.5q-55 0 -92 -25.5t-58.5 -64.5t-31 -85t-11.5 -89zM401 1604q-5 41 10 73.5t44 45t57 -20.5q63 -72 123.5 -99.5t83.5 -39.5t22 -32.5t-38 -31.5q-20 -6 -55 -6t-72 5.5t-72 14.5t-57 23 q-41 27 -46 68z" />
<glyph unicode="&#xd3;" d="M0 684q0 141 15.5 277.5t70.5 243t163 172t294 65.5q129 0 219 -30t147.5 -83t89 -124.5t46 -155.5t16.5 -177.5t2 -187.5q0 -195 -42 -326t-113.5 -210.5t-168 -113.5t-207.5 -34t-208 38t-168.5 121t-113.5 213t-42 312zM357.5 1530q-1.5 21 21.5 33t83.5 39.5 t123.5 99.5q29 33 57.5 20.5t44 -45t9.5 -73.5t-45 -68q-23 -14 -57.5 -23t-71.5 -14.5t-72 -5.5t-55 6q-37 10 -38.5 31zM358 608q-2 -43 6.5 -95t29 -96t57.5 -74t94 -30q59 0 97 26t58.5 68t27.5 96t7 113q0 43 -6 88.5t-26.5 82t-56.5 61t-95 24.5q-55 0 -92 -25.5 t-58.5 -64.5t-31 -85t-11.5 -89z" />
<glyph unicode="&#xd4;" d="M0 684q0 141 15.5 277.5t70.5 243t163 172t294 65.5q129 0 219 -30t147.5 -83t89 -124.5t46 -155.5t16.5 -177.5t2 -187.5q0 -195 -42 -326t-113.5 -210.5t-168 -113.5t-207.5 -34t-208 38t-168.5 121t-113.5 213t-42 312zM358 608q-2 -43 6.5 -95t29 -96t57.5 -74 t94 -30q59 0 97 26t58.5 68t27.5 96t7 113q0 43 -6 88.5t-26.5 82t-56.5 61t-95 24.5q-55 0 -92 -25.5t-58.5 -64.5t-31 -85t-11.5 -89zM383 1563q8 27 22.5 56.5t34 54t46 42t59.5 17.5q31 2 58.5 -15.5t50 -42t39 -53.5t24.5 -49q8 -25 -7.5 -44t-41 -30.5t-51 -8.5 t-37.5 26q-16 29 -20.5 47t-14.5 33q-12 -12 -17.5 -39t-9.5 -39q-6 -18 -30.5 -23.5t-50 0.5t-44 23.5t-10.5 44.5z" />
<glyph unicode="&#xd5;" d="M0 684q0 141 15.5 277.5t70.5 243t163 172t294 65.5q129 0 219 -30t147.5 -83t89 -124.5t46 -155.5t16.5 -177.5t2 -187.5q0 -195 -42 -326t-113.5 -210.5t-168 -113.5t-207.5 -34t-208 38t-168.5 121t-113.5 213t-42 312zM358 608q-2 -43 6.5 -95t29 -96t57.5 -74 t94 -30q59 0 97 26t58.5 68t27.5 96t7 113q0 43 -6 88.5t-26.5 82t-56.5 61t-95 24.5q-55 0 -92 -25.5t-58.5 -64.5t-31 -85t-11.5 -89zM388 1552.5q-7 32.5 3 66.5t43 46q41 14 63.5 9t40 -14t37 -14t54.5 11q27 12 50 -4t34.5 -45t4 -60.5t-41.5 -50.5q-27 -14 -50.5 -10 t-48 11.5t-51 10.5t-57.5 -12q-31 -16 -52.5 3.5t-28.5 52z" />
<glyph unicode="&#xd6;" d="M0 684q0 141 15.5 277.5t70.5 243t163 172t294 65.5q129 0 219 -30t147.5 -83t89 -124.5t46 -155.5t16.5 -177.5t2 -187.5q0 -195 -42 -326t-113.5 -210.5t-168 -113.5t-207.5 -34t-208 38t-168.5 121t-113.5 213t-42 312zM358 608q-2 -43 6.5 -95t29 -96t57.5 -74 t94 -30q59 0 97 26t58.5 68t27.5 96t7 113q0 43 -6 88.5t-26.5 82t-56.5 61t-95 24.5q-55 0 -92 -25.5t-58.5 -64.5t-31 -85t-11.5 -89zM406 1579q0 37 21 62.5t50 25.5t50.5 -25.5t21.5 -62.5t-21.5 -62.5t-50.5 -25.5t-50 25.5t-21 62.5zM568 1579q0 37 21 62.5t50 25.5 q31 0 51.5 -25.5t20.5 -62.5t-20.5 -62.5t-51.5 -25.5q-29 0 -50 25.5t-21 62.5z" />
<glyph unicode="&#xd7;" horiz-adv-x="978" d="M0 623q0 45 23.5 89t63.5 83t87 58t96 14t92 -48l80 -80q35 35 61.5 62.5t45.5 46.5q33 31 77 31t89 -22.5t83 -63.5t57 -88.5t14 -97.5t-46 -91l-78 -78q27 -29 48.5 -50.5l37.5 -37.5q37 -37 41.5 -86t-16 -95t-59.5 -87t-84 -62.5t-93.5 -19.5t-84.5 41 q-23 20 -45.5 44t-49.5 48l-86 -86q-37 -37 -86 -41t-96 16.5t-87 59.5t-61.5 84t-19.5 92t41 86q41 43 94 94l-62.5 62.5t-43.5 46.5q-33 31 -33 76z" />
<glyph unicode="&#xd9;" d="M0 1208q-2 68 28.5 117t78 78t103.5 34t104 -14.5t80 -66.5t32 -125q0 -33 -2 -95.5t-4 -146.5t-3 -184t-1 -207q0 -80 27.5 -129t60.5 -56t61.5 36t34.5 149q2 45 2 129t-1 178t-2 184.5t-1 151.5q0 49 33 89t83 65.5t109.5 34t110.5 -5t86 -52t39 -108.5v-113t1 -137.5 t0 -143t0 -134t1 -108.5v-65q2 -164 -38 -272.5t-110.5 -173t-167 -91t-208.5 -26.5q-145 0 -243.5 37t-160 103.5t-89.5 159.5t-34 206q-4 66 -5 166t-2 204.5t-1 194.5t-2 137zM366 1604q-5 41 10 73.5t44 45t57 -20.5q63 -72 123.5 -99.5t83.5 -39.5t22 -32.5t-38 -31.5 q-20 -6 -55 -6t-72 5.5t-72 14.5t-57 23q-41 27 -46 68z" />
<glyph unicode="&#xda;" d="M0 1208q-2 68 28.5 117t78 78t103.5 34t104 -14.5t80 -66.5t32 -125q0 -33 -2 -95.5t-4 -146.5t-3 -184t-1 -207q0 -80 27.5 -129t60.5 -56t61.5 36t34.5 149q2 45 2 129t-1 178t-2 184.5t-1 151.5q0 49 33 89t83 65.5t109.5 34t110.5 -5t86 -52t39 -108.5v-113t1 -137.5 t0 -143t0 -134t1 -108.5v-65q2 -164 -38 -272.5t-110.5 -173t-167 -91t-208.5 -26.5q-145 0 -243.5 37t-160 103.5t-89.5 159.5t-34 206q-4 66 -5 166t-2 204.5t-1 194.5t-2 137zM320.5 1530q-1.5 21 21.5 33t83.5 39.5t123.5 99.5q29 33 57.5 20.5t44 -45t9.5 -73.5 t-45 -68q-23 -14 -57.5 -23t-71.5 -14.5t-72 -5.5t-55 6q-37 10 -38.5 31z" />
<glyph unicode="&#xdb;" d="M0 1208q-2 68 28.5 117t78 78t103.5 34t104 -14.5t80 -66.5t32 -125q0 -33 -2 -95.5t-4 -146.5t-3 -184t-1 -207q0 -80 27.5 -129t60.5 -56t61.5 36t34.5 149q2 45 2 129t-1 178t-2 184.5t-1 151.5q0 49 33 89t83 65.5t109.5 34t110.5 -5t86 -52t39 -108.5v-113t1 -137.5 t0 -143t0 -134t1 -108.5v-65q2 -164 -38 -272.5t-110.5 -173t-167 -91t-208.5 -26.5q-145 0 -243.5 37t-160 103.5t-89.5 159.5t-34 206q-4 66 -5 166t-2 204.5t-1 194.5t-2 137zM342 1563q8 27 22.5 56.5t34 54t46 42t59.5 17.5q31 2 58.5 -15.5t50 -42t39 -53.5t24.5 -49 q8 -25 -7.5 -44t-41 -30.5t-51 -8.5t-37.5 26q-16 29 -20.5 47t-14.5 33q-12 -12 -17.5 -39t-9.5 -39q-6 -18 -30.5 -23.5t-50 0.5t-44 23.5t-10.5 44.5z" />
<glyph unicode="&#xdc;" d="M0 1208q-2 68 28.5 117t78 78t103.5 34t104 -14.5t80 -66.5t32 -125q0 -33 -2 -95.5t-4 -146.5t-3 -184t-1 -207q0 -80 27.5 -129t60.5 -56t61.5 36t34.5 149q2 45 2 129t-1 178t-2 184.5t-1 151.5q0 49 33 89t83 65.5t109.5 34t110.5 -5t86 -52t39 -108.5v-113t1 -137.5 t0 -143t0 -134t1 -108.5v-65q2 -164 -38 -272.5t-110.5 -173t-167 -91t-208.5 -26.5q-145 0 -243.5 37t-160 103.5t-89.5 159.5t-34 206q-4 66 -5 166t-2 204.5t-1 194.5t-2 137zM363 1579q0 37 21 62.5t50 25.5t50.5 -25.5t21.5 -62.5t-21.5 -62.5t-50.5 -25.5t-50 25.5 t-21 62.5zM525 1579q0 37 21 62.5t50 25.5q31 0 51.5 -25.5t20.5 -62.5t-20.5 -62.5t-51.5 -25.5q-29 0 -50 25.5t-21 62.5z" />
<glyph unicode="&#xdd;" horiz-adv-x="1167" d="M0 946v277q0 74 30.5 123t77 73.5t99.5 25.5t99 -21.5t76 -69.5t30 -117q-2 -68 0 -102.5t2 -73.5q0 -88 29.5 -139.5t64.5 -56.5t65.5 40t32.5 152q2 68 0 123t0 92q0 55 34 94t84 58.5t108.5 20.5t109.5 -17.5t85 -57.5t36 -96v-244q0 -244 -84 -400.5t-221 -223.5 v-134q0 -90 -33 -149.5t-82 -90t-105.5 -32.5t-106.5 24.5t-84 82t-36 137.5q-2 47 -3 84t-3 69q-82 35 -140.5 92.5t-95 130t-53 156.5t-16.5 170zM316.5 1530q-1.5 21 21.5 33t83.5 39.5t123.5 99.5q29 33 57.5 20.5t44 -45t9.5 -73.5t-45 -68q-23 -14 -57.5 -23 t-71.5 -14.5t-72 -5.5t-55 6q-37 10 -38.5 31z" />
<glyph unicode="&#xe0;" horiz-adv-x="1173" d="M0 442q-2 154 52 239t134 126t167 49t151 8q70 0 137.5 -16.5t122.5 -54.5q33 69 133 69q61 0 96 -16.5t53.5 -65.5t22.5 -139t2 -240q0 -123 -14.5 -201.5t-37 -122.5t-53 -60.5t-65.5 -16.5q-66 0 -104 82q-57 -43 -130 -62.5t-155 -19.5q-106 0 -199.5 19.5t-162 69.5 t-108.5 135t-42 218zM326 389q0 -41 13 -68.5t35.5 -45t54.5 -25.5t67 -8q29 0 56.5 6t49 21.5t33.5 43t12 68.5q0 39 -14.5 67.5t-36 47t-49 26.5t-53.5 8q-20 0 -49 -6t-56 -21.5t-45 -43t-18 -70.5zM368 1018q-5 41 10 73.5t44 45t57 -20.5q63 -72 123.5 -99.5 t83.5 -39.5t22 -32.5t-38 -31.5q-20 -6 -55 -6t-72 5.5t-72 14.5t-57 23q-41 27 -46 68z" />
<glyph unicode="&#xe1;" horiz-adv-x="1173" d="M0 442q-2 154 52 239t134 126t167 49t151 8q70 0 137.5 -16.5t122.5 -54.5q33 69 133 69q61 0 96 -16.5t53.5 -65.5t22.5 -139t2 -240q0 -123 -14.5 -201.5t-37 -122.5t-53 -60.5t-65.5 -16.5q-66 0 -104 82q-57 -43 -130 -62.5t-155 -19.5q-106 0 -199.5 19.5t-162 69.5 t-108.5 135t-42 218zM316.5 944q-1.5 21 21.5 33t83.5 39.5t123.5 99.5q29 33 57.5 20.5t44 -45t9.5 -73.5t-45 -68q-23 -14 -57.5 -23t-71.5 -14.5t-72 -5.5t-55 6q-37 10 -38.5 31zM326 389q0 -41 13 -68.5t35.5 -45t54.5 -25.5t67 -8q29 0 56.5 6t49 21.5t33.5 43 t12 68.5q0 39 -14.5 67.5t-36 47t-49 26.5t-53.5 8q-20 0 -49 -6t-56 -21.5t-45 -43t-18 -70.5z" />
<glyph unicode="&#xe2;" horiz-adv-x="1173" d="M0 442q-2 154 52 239t134 126t167 49t151 8q70 0 137.5 -16.5t122.5 -54.5q33 69 133 69q61 0 96 -16.5t53.5 -65.5t22.5 -139t2 -240q0 -123 -14.5 -201.5t-37 -122.5t-53 -60.5t-65.5 -16.5q-66 0 -104 82q-57 -43 -130 -62.5t-155 -19.5q-106 0 -199.5 19.5t-162 69.5 t-108.5 135t-42 218zM326 389q0 -41 13 -68.5t35.5 -45t54.5 -25.5t67 -8q29 0 56.5 6t49 21.5t33.5 43t12 68.5q0 39 -14.5 67.5t-36 47t-49 26.5t-53.5 8q-20 0 -49 -6t-56 -21.5t-45 -43t-18 -70.5zM342 977q8 27 22.5 56.5t34 54t46 42t59.5 17.5q31 2 58.5 -15.5 t50 -42t39 -53.5t24.5 -49q8 -25 -7.5 -44t-41 -30.5t-51 -8.5t-37.5 26q-16 29 -20.5 47t-14.5 33q-12 -12 -17.5 -39t-9.5 -39q-6 -18 -30.5 -23.5t-50 0.5t-44 23.5t-10.5 44.5z" />
<glyph unicode="&#xe3;" horiz-adv-x="1173" d="M0 442q-2 154 52 239t134 126t167 49t151 8q70 0 137.5 -16.5t122.5 -54.5q33 69 133 69q61 0 96 -16.5t53.5 -65.5t22.5 -139t2 -240q0 -123 -14.5 -201.5t-37 -122.5t-53 -60.5t-65.5 -16.5q-66 0 -104 82q-57 -43 -130 -62.5t-155 -19.5q-106 0 -199.5 19.5t-162 69.5 t-108.5 135t-42 218zM326 389q0 -41 13 -68.5t35.5 -45t54.5 -25.5t67 -8q29 0 56.5 6t49 21.5t33.5 43t12 68.5q0 39 -14.5 67.5t-36 47t-49 26.5t-53.5 8q-20 0 -49 -6t-56 -21.5t-45 -43t-18 -70.5zM341 966.5q-7 32.5 3 66.5t43 46q41 14 63.5 9t40 -14t37 -14t54.5 11 q27 12 50 -4t34.5 -45t4 -60.5t-41.5 -50.5q-27 -14 -50.5 -10t-48 11.5t-51 10.5t-57.5 -12q-31 -16 -52.5 3.5t-28.5 52z" />
<glyph unicode="&#xe4;" horiz-adv-x="1173" d="M0 442q-2 154 52 239t134 126t167 49t151 8q70 0 137.5 -16.5t122.5 -54.5q33 69 133 69q61 0 96 -16.5t53.5 -65.5t22.5 -139t2 -240q0 -123 -14.5 -201.5t-37 -122.5t-53 -60.5t-65.5 -16.5q-66 0 -104 82q-57 -43 -130 -62.5t-155 -19.5q-106 0 -199.5 19.5t-162 69.5 t-108.5 135t-42 218zM326 389q0 -41 13 -68.5t35.5 -45t54.5 -25.5t67 -8q29 0 56.5 6t49 21.5t33.5 43t12 68.5q0 39 -14.5 67.5t-36 47t-49 26.5t-53.5 8q-20 0 -49 -6t-56 -21.5t-45 -43t-18 -70.5zM361 993q0 37 21 62.5t50 25.5t50.5 -25.5t21.5 -62.5t-21.5 -62.5 t-50.5 -25.5t-50 25.5t-21 62.5zM523 993q0 37 21 62.5t50 25.5q31 0 51.5 -25.5t20.5 -62.5t-20.5 -62.5t-51.5 -25.5q-29 0 -50 25.5t-21 62.5z" />
<glyph unicode="&#xe5;" horiz-adv-x="1173" d="M0 442q-2 154 52 239t134 126t167 49t151 8q70 0 137.5 -16.5t122.5 -54.5q33 69 133 69q61 0 96 -16.5t53.5 -65.5t22.5 -139t2 -240q0 -123 -14.5 -201.5t-37 -122.5t-53 -60.5t-65.5 -16.5q-66 0 -104 82q-57 -43 -130 -62.5t-155 -19.5q-106 0 -199.5 19.5t-162 69.5 t-108.5 135t-42 218zM326 389q0 -41 13 -68.5t35.5 -45t54.5 -25.5t67 -8q29 0 56.5 6t49 21.5t33.5 43t12 68.5q0 39 -14.5 67.5t-36 47t-49 26.5t-53.5 8q-20 0 -49 -6t-56 -21.5t-45 -43t-18 -70.5zM346 1014q0 45 48 76.5t118 31.5q68 0 115.5 -31.5t47.5 -76.5t-48 -77 t-115 -32q-70 0 -118 32t-48 77zM473 997q0 -24 39 -24q16 0 26 7t10 17t-10 17.5t-26 7.5q-39 0 -39 -25z" />
<glyph unicode="&#xe6;" horiz-adv-x="1873" d="M0 442q-2 154 52 239t134 126t167 49t151 8q70 0 137.5 -16.5t122.5 -54.5q33 70 133 69q39 0 65.5 -5t47.5 -21q53 16 111.5 22t115.5 6q90 0 182 -21.5t169 -70.5t126 -129t53 -194q0 -35 -25.5 -56.5t-64.5 -31t-85 -8.5t-88 14.5t-72.5 36t-36.5 57.5t-41 58.5 t-80 32.5t-93 1t-85 -37q14 0 24 -1t19 -1q51 0 88 -35t42 -78t-28 -78.5t-117 -35.5h-51q18 -25 58 -34t86.5 -6t86 14t58.5 28q45 43 104.5 50t106.5 -13.5t68.5 -65.5t-7.5 -106q-23 -35 -68.5 -64t-106 -48t-126 -30.5t-127.5 -11.5q-125 0 -223 29q-35 -29 -82 -29 q-66 0 -104 82q-57 -43 -130 -62.5t-155 -19.5q-106 0 -199.5 19.5t-162 69.5t-108.5 135t-42 218zM326 389q0 -41 13 -68.5t35.5 -45t54.5 -25.5t67 -8q29 0 56.5 6t49 21.5t33.5 43t12 68.5q0 39 -14.5 67.5t-36 47t-49 26.5t-53.5 8q-20 0 -49 -6t-56 -21.5t-45 -43 t-18 -70.5z" />
<glyph unicode="&#xe7;" horiz-adv-x="1171" d="M0 444q2 125 50 206t124 129t170 67.5t191 19.5q90 0 182 -21.5t168 -70.5t126 -129t54 -194q0 -35 -25.5 -56.5t-64.5 -31t-85 -8.5t-88 14.5t-73 36t-39 57.5q-8 47 -64.5 73.5t-121 21.5t-116.5 -44t-54 -123q0 -53 20.5 -82.5t52 -44t71.5 -15.5t76 5t64.5 16.5 t40.5 20.5q45 43 103.5 51t105.5 -13.5t68.5 -66.5t-4.5 -106q-23 -35 -69 -64t-106.5 -48t-126 -30.5t-126.5 -11.5h-2q-6 -10 -7 -19.5t17 -11.5q49 -2 70.5 -30.5t12.5 -60.5t-53 -57.5t-128 -21.5q-14 0 -22.5 15.5t-9.5 34t7 33t29 14.5q18 0 26.5 5t8.5 13t-7.5 15.5 t-17.5 7.5q-29 2 -31 24.5t2 44.5q-406 43 -399 436z" />
<glyph unicode="&#xe8;" horiz-adv-x="1169" d="M0 442q2 123 50 205t124 130t170 67.5t191 19.5q90 0 182 -22.5t168 -71.5t126 -128t54 -193q0 -35 -25.5 -56.5t-64.5 -32t-85 -8.5t-88 14.5t-73 35t-39 57.5q-6 35 -40 58.5t-79 32.5t-93 1t-85 -37h41q53 0 89 -35t42 -78t-26.5 -78.5t-116.5 -37.5h-26.5t-26.5 2 q18 -25 59 -34t87 -7t86 14t58 29q45 43 104.5 50t105.5 -14.5t67.5 -65.5t-4.5 -105q-23 -35 -69 -64t-106.5 -49.5t-126 -30.5t-126.5 -10q-510 0 -504 442zM370 1018q-5 41 10 73.5t44 45t57 -20.5q63 -72 123.5 -99.5t83.5 -39.5t22 -32.5t-38 -31.5q-20 -6 -55 -6 t-72 5.5t-72 14.5t-57 23q-41 27 -46 68z" />
<glyph unicode="&#xe9;" horiz-adv-x="1169" d="M0 442q2 123 50 205t124 130t170 67.5t191 19.5q90 0 182 -22.5t168 -71.5t126 -128t54 -193q0 -35 -25.5 -56.5t-64.5 -32t-85 -8.5t-88 14.5t-73 35t-39 57.5q-6 35 -40 58.5t-79 32.5t-93 1t-85 -37h41q53 0 89 -35t42 -78t-26.5 -78.5t-116.5 -37.5h-26.5t-26.5 2 q18 -25 59 -34t87 -7t86 14t58 29q45 43 104.5 50t105.5 -14.5t67.5 -65.5t-4.5 -105q-23 -35 -69 -64t-106.5 -49.5t-126 -30.5t-126.5 -10q-510 0 -504 442zM320.5 944q-1.5 21 21.5 33t83.5 39.5t123.5 99.5q29 33 57.5 20.5t44 -45t9.5 -73.5t-45 -68q-23 -14 -57.5 -23 t-71.5 -14.5t-72 -5.5t-55 6q-37 10 -38.5 31z" />
<glyph unicode="&#xea;" horiz-adv-x="1169" d="M0 442q2 123 50 205t124 130t170 67.5t191 19.5q90 0 182 -22.5t168 -71.5t126 -128t54 -193q0 -35 -25.5 -56.5t-64.5 -32t-85 -8.5t-88 14.5t-73 35t-39 57.5q-6 35 -40 58.5t-79 32.5t-93 1t-85 -37h41q53 0 89 -35t42 -78t-26.5 -78.5t-116.5 -37.5h-26.5t-26.5 2 q18 -25 59 -34t87 -7t86 14t58 29q45 43 104.5 50t105.5 -14.5t67.5 -65.5t-4.5 -105q-23 -35 -69 -64t-106.5 -49.5t-126 -30.5t-126.5 -10q-510 0 -504 442zM342 977q8 27 22.5 56.5t34 54t46 42t59.5 17.5q31 2 58.5 -15.5t50 -42t39 -53.5t24.5 -49q8 -25 -7.5 -44 t-41 -30.5t-51 -8.5t-37.5 26q-16 29 -20.5 47t-14.5 33q-12 -12 -17.5 -39t-9.5 -39q-6 -18 -30.5 -23.5t-50 0.5t-44 23.5t-10.5 44.5z" />
<glyph unicode="&#xeb;" horiz-adv-x="1169" d="M0 442q2 123 50 205t124 130t170 67.5t191 19.5q90 0 182 -22.5t168 -71.5t126 -128t54 -193q0 -35 -25.5 -56.5t-64.5 -32t-85 -8.5t-88 14.5t-73 35t-39 57.5q-6 35 -40 58.5t-79 32.5t-93 1t-85 -37h41q53 0 89 -35t42 -78t-26.5 -78.5t-116.5 -37.5h-26.5t-26.5 2 q18 -25 59 -34t87 -7t86 14t58 29q45 43 104.5 50t105.5 -14.5t67.5 -65.5t-4.5 -105q-23 -35 -69 -64t-106.5 -49.5t-126 -30.5t-126.5 -10q-510 0 -504 442zM361 993q0 37 21 62.5t50 25.5t50.5 -25.5t21.5 -62.5t-21.5 -62.5t-50.5 -25.5t-50 25.5t-21 62.5zM523 993 q0 37 21 62.5t50 25.5q31 0 51.5 -25.5t20.5 -62.5t-20.5 -62.5t-51.5 -25.5q-29 0 -50 25.5t-21 62.5z" />
<glyph unicode="&#xec;" horiz-adv-x="436" d="M-1 609q-1 87 13.5 144.5t48 83t99.5 25.5q59 0 94 -16.5t53.5 -65.5t22.5 -139t2 -240q0 -123 -14.5 -201.5t-37 -122.5t-53 -60.5t-65.5 -16.5q-70 0 -111 97.5t-47 301.5q-4 123 -5 210zM1 1018q-5 41 10.5 73.5t44 45t57.5 -20.5q63 -72 123 -99.5t83 -39.5t22 -32.5 t-38 -31.5q-20 -6 -55 -6t-72 5.5t-71.5 14.5t-57.5 23q-41 27 -46 68z" />
<glyph unicode="&#xed;" horiz-adv-x="436" d="M-5.5 944q-1.5 21 21.5 33t83.5 39.5t123.5 99.5q29 33 57.5 20.5t44 -45t9.5 -73.5t-45 -68q-23 -14 -57.5 -23t-71.5 -14.5t-72 -5.5t-55 6q-37 10 -38.5 31zM-1 609q1 -87 5 -210q6 -205 47 -302t111 -97q35 0 65.5 16.5t53 60.5t37 123t14.5 201q2 150 -2 240 t-22.5 139t-53.5 65.5t-94 16.5q-66 0 -99.5 -25.5t-48 -83t-13.5 -144.5z" />
<glyph unicode="&#xee;" horiz-adv-x="436" d="M-4 977q8 27 22.5 56.5t34 54t46 42t59.5 17.5q31 2 58.5 -15.5t50 -42t39 -53.5t24.5 -49q8 -25 -7.5 -44t-41 -30.5t-51 -8.5t-37.5 26q-16 29 -20.5 47t-14.5 33q-12 -12 -17.5 -39t-9.5 -39q-6 -18 -30.5 -23.5t-50 0.5t-44 23.5t-10.5 44.5zM-1 609 q-1 87 13.5 144.5t48 83t99.5 25.5q59 0 94 -16.5t53.5 -65.5t22.5 -139t2 -240q0 -123 -14.5 -201.5t-37 -122.5t-53 -60.5t-65.5 -16.5q-70 0 -111 97.5t-47 301.5q-4 123 -5 210z" />
<glyph unicode="&#xef;" horiz-adv-x="436" d="M-1 609q-1 87 13.5 144.5t48 83t99.5 25.5q59 0 94 -16.5t53.5 -65.5t22.5 -139t2 -240q0 -123 -14.5 -201.5t-37 -122.5t-53 -60.5t-65.5 -16.5q-70 0 -111 97.5t-47 301.5q-4 123 -5 210zM8 993q0 37 21.5 62.5t50.5 25.5t50.5 -25.5t21.5 -62.5t-21.5 -62.5 t-50.5 -25.5t-50.5 25.5t-21.5 62.5zM170 993q0 37 21.5 62.5t50.5 25.5q31 0 51 -25.5t20 -62.5t-20.5 -62.5t-50.5 -25.5q-29 0 -50.5 25.5t-21.5 62.5z" />
<glyph unicode="&#xf1;" horiz-adv-x="1140" d="M0 578q0 20 3 68t17.5 95t43 84t81.5 37t95.5 -31.5t58.5 -89.5q14 18 32.5 40t46.5 40.5t67 29.5t96 11q162 0 261 -50t153.5 -136t70.5 -204t14 -253q-2 -86 -35.5 -136t-83 -70.5t-106.5 -13.5t-105 35.5t-80 77t-28 109.5q0 37 3 104.5t-5 132t-34.5 114t-84.5 49.5 q-78 2 -112.5 -60.5t-32.5 -185.5q0 -51 1 -116.5t-13.5 -122t-51 -95.5t-112.5 -39q-57 0 -90 30.5t-49.5 98.5t-19.5 177.5t-1 269.5zM345 966.5q-7 32.5 3 66.5t43 46q41 14 63.5 9t40 -14t37 -14t54.5 11q27 12 50 -4t34.5 -45t4 -60.5t-41.5 -50.5q-27 -14 -50.5 -10 t-48 11.5t-51 10.5t-57.5 -12q-31 -16 -52.5 3.5t-28.5 52z" />
<glyph unicode="&#xf2;" horiz-adv-x="1144" d="M0 442q-2 102 26.5 173t76 118t107.5 74t123.5 39t124 15t107.5 3q92 0 179 -23.5t155 -76.5t109 -138t39 -208q-2 -119 -40 -199t-102.5 -129t-150.5 -69.5t-181 -20.5q-121 0 -224 19.5t-180 69.5t-122 135t-47 218zM360 389q-2 -72 45.5 -109.5t139.5 -37.5 q72 0 124 33.5t52 105.5q0 80 -55.5 113.5t-124.5 33.5q-27 0 -57.5 -6t-57.5 -21.5t-45.5 -42t-20.5 -69.5zM370 1018q-5 41 10 73.5t44 45t57 -20.5q63 -72 123.5 -99.5t83.5 -39.5t22 -32.5t-38 -31.5q-20 -6 -55 -6t-72 5.5t-72 14.5t-57 23q-41 27 -46 68z" />
<glyph unicode="&#xf3;" horiz-adv-x="1144" d="M0 442q-2 102 26.5 173t76 118t107.5 74t123.5 39t124 15t107.5 3q92 0 179 -23.5t155 -76.5t109 -138t39 -208q-2 -119 -40 -199t-102.5 -129t-150.5 -69.5t-181 -20.5q-121 0 -224 19.5t-180 69.5t-122 135t-47 218zM318.5 944q-1.5 21 21.5 33t83.5 39.5t123.5 99.5 q29 33 57.5 20.5t44 -45t9.5 -73.5t-45 -68q-23 -14 -57.5 -23t-71.5 -14.5t-72 -5.5t-55 6q-37 10 -38.5 31zM360 389q-2 -72 45.5 -109.5t139.5 -37.5q72 0 124 33.5t52 105.5q0 80 -55.5 113.5t-124.5 33.5q-27 0 -57.5 -6t-57.5 -21.5t-45.5 -42t-20.5 -69.5z" />
<glyph unicode="&#xf4;" horiz-adv-x="1144" d="M0 442q-2 102 26.5 173t76 118t107.5 74t123.5 39t124 15t107.5 3q92 0 179 -23.5t155 -76.5t109 -138t39 -208q-2 -119 -40 -199t-102.5 -129t-150.5 -69.5t-181 -20.5q-121 0 -224 19.5t-180 69.5t-122 135t-47 218zM346 977q8 27 22.5 56.5t34 54t46 42t59.5 17.5 q31 2 58.5 -15.5t50 -42t39 -53.5t24.5 -49q8 -25 -7.5 -44t-41 -30.5t-51 -8.5t-37.5 26q-16 29 -20.5 47t-14.5 33q-12 -12 -17.5 -39t-9.5 -39q-6 -18 -30.5 -23.5t-50 0.5t-44 23.5t-10.5 44.5zM360 389q-2 -72 45.5 -109.5t139.5 -37.5q72 0 124 33.5t52 105.5 q0 80 -55.5 113.5t-124.5 33.5q-27 0 -57.5 -6t-57.5 -21.5t-45.5 -42t-20.5 -69.5z" />
<glyph unicode="&#xf5;" horiz-adv-x="1144" d="M0 442q-2 102 26.5 173t76 118t107.5 74t123.5 39t124 15t107.5 3q92 0 179 -23.5t155 -76.5t109 -138t39 -208q-2 -119 -40 -199t-102.5 -129t-150.5 -69.5t-181 -20.5q-121 0 -224 19.5t-180 69.5t-122 135t-47 218zM345 966.5q-7 32.5 3 66.5t43 46q41 14 63.5 9 t40 -14t37 -14t54.5 11q27 12 50 -4t34.5 -45t4 -60.5t-41.5 -50.5q-27 -14 -50.5 -10t-48 11.5t-51 10.5t-57.5 -12q-31 -16 -52.5 3.5t-28.5 52zM360 389q-2 -72 45.5 -109.5t139.5 -37.5q72 0 124 33.5t52 105.5q0 80 -55.5 113.5t-124.5 33.5q-27 0 -57.5 -6 t-57.5 -21.5t-45.5 -42t-20.5 -69.5z" />
<glyph unicode="&#xf6;" horiz-adv-x="1144" d="M0 442q-2 102 26.5 173t76 118t107.5 74t123.5 39t124 15t107.5 3q92 0 179 -23.5t155 -76.5t109 -138t39 -208q-2 -119 -40 -199t-102.5 -129t-150.5 -69.5t-181 -20.5q-121 0 -224 19.5t-180 69.5t-122 135t-47 218zM360 389q-2 -72 45.5 -109.5t139.5 -37.5 q72 0 124 33.5t52 105.5q0 80 -55.5 113.5t-124.5 33.5q-27 0 -57.5 -6t-57.5 -21.5t-45.5 -42t-20.5 -69.5zM365 993q0 37 21 62.5t50 25.5t50.5 -25.5t21.5 -62.5t-21.5 -62.5t-50.5 -25.5t-50 25.5t-21 62.5zM527 993q0 37 21 62.5t50 25.5q31 0 51.5 -25.5t20.5 -62.5 t-20.5 -62.5t-51.5 -25.5q-29 0 -50 25.5t-21 62.5z" />
<glyph unicode="&#xf7;" horiz-adv-x="573" d="M0 127q0 27 18.5 50.5t50 41t73.5 27.5t91 10t91.5 -10t74 -27.5t50 -41t18.5 -50.5t-18.5 -49.5t-50 -40t-73.5 -27.5t-92 -10q-49 0 -91 10t-73.5 27.5t-50 40t-18.5 49.5zM0 641q0 27 18.5 49.5t50 40t73.5 27.5t91 10t91.5 -10t74 -27.5t50 -40t18.5 -49.5 t-18.5 -50.5t-50 -41t-74 -27.5t-91.5 -10t-91 10t-73.5 27.5t-50 41t-18.5 50.5z" />
<glyph unicode="&#xf9;" horiz-adv-x="1140" d="M0 643q2 86 36 136t84 70.5t107.5 13.5t105.5 -35.5t78.5 -77t28.5 -109.5q0 -37 -3 -98.5t5.5 -121t35 -103.5t83.5 -44q78 -2 115 54.5t39 158.5q0 51 -2 117t10 123t48 96t112 39q57 0 89 -30.5t48 -99t19 -178.5t1 -269q0 -23 -3 -70t-16 -94t-43 -84t-83 -37 t-86 31.5t-49 89.5q-29 -57 -86.5 -89t-171.5 -32q-164 0 -263.5 50t-153.5 136t-71.5 204t-13.5 253zM429 1018q-5 41 10 73.5t44 45t57 -20.5q63 -72 123.5 -99.5t83.5 -39.5t22 -32.5t-38 -31.5q-20 -6 -55 -6t-72 5.5t-72 14.5t-57 23q-41 27 -46 68z" />
<glyph unicode="&#xfa;" horiz-adv-x="1140" d="M0 643q2 86 36 136t84 70.5t107.5 13.5t105.5 -35.5t78.5 -77t28.5 -109.5q0 -37 -3 -98.5t5.5 -121t35 -103.5t83.5 -44q78 -2 115 54.5t39 158.5q0 51 -2 117t10 123t48 96t112 39q57 0 89 -30.5t48 -99t19 -178.5t1 -269q0 -23 -3 -70t-16 -94t-43 -84t-83 -37 t-86 31.5t-49 89.5q-29 -57 -86.5 -89t-171.5 -32q-164 0 -263.5 50t-153.5 136t-71.5 204t-13.5 253zM383.5 944q-1.5 21 21.5 33t83.5 39.5t123.5 99.5q29 33 57.5 20.5t44 -45t9.5 -73.5t-45 -68q-23 -14 -57.5 -23t-71.5 -14.5t-72 -5.5t-55 6q-37 10 -38.5 31z" />
<glyph unicode="&#xfb;" horiz-adv-x="1140" d="M0 643q2 86 36 136t84 70.5t107.5 13.5t105.5 -35.5t78.5 -77t28.5 -109.5q0 -37 -3 -98.5t5.5 -121t35 -103.5t83.5 -44q78 -2 115 54.5t39 158.5q0 51 -2 117t10 123t48 96t112 39q57 0 89 -30.5t48 -99t19 -178.5t1 -269q0 -23 -3 -70t-16 -94t-43 -84t-83 -37 t-86 31.5t-49 89.5q-29 -57 -86.5 -89t-171.5 -32q-164 0 -263.5 50t-153.5 136t-71.5 204t-13.5 253zM416 977q8 27 22.5 56.5t34 54t46 42t59.5 17.5q31 2 58.5 -15.5t50 -42t39 -53.5t24.5 -49q8 -25 -7.5 -44t-41 -30.5t-51 -8.5t-37.5 26q-16 29 -20.5 47t-14.5 33 q-12 -12 -17.5 -39t-9.5 -39q-6 -18 -30.5 -23.5t-50 0.5t-44 23.5t-10.5 44.5z" />
<glyph unicode="&#xfc;" horiz-adv-x="1140" d="M0 643q2 86 36 136t84 70.5t107.5 13.5t105.5 -35.5t78.5 -77t28.5 -109.5q0 -37 -3 -98.5t5.5 -121t35 -103.5t83.5 -44q78 -2 115 54.5t39 158.5q0 51 -2 117t10 123t48 96t112 39q57 0 89 -30.5t48 -99t19 -178.5t1 -269q0 -23 -3 -70t-16 -94t-43 -84t-83 -37 t-86 31.5t-49 89.5q-29 -57 -86.5 -89t-171.5 -32q-164 0 -263.5 50t-153.5 136t-71.5 204t-13.5 253zM426 993q0 37 21 62.5t50 25.5t50.5 -25.5t21.5 -62.5t-21.5 -62.5t-50.5 -25.5t-50 25.5t-21 62.5zM588 993q0 37 21 62.5t50 25.5q31 0 51.5 -25.5t20.5 -62.5 t-20.5 -62.5t-51.5 -25.5q-29 0 -50 25.5t-21 62.5z" />
<glyph unicode="&#xfd;" horiz-adv-x="1136" d="M0 645q2 86 36 136t84 70.5t107.5 13.5t105.5 -35.5t78.5 -76.5t28.5 -110q0 -37 -3 -99.5t5.5 -120.5t35 -102.5t83.5 -44.5q78 -2 115 53.5t39 159.5q0 51 -2 117t10 122t48 95t112 39q57 0 89 -30.5t48 -98t19 -177.5t1 -269v-66t-1 -89t-1 -83v-45 q-10 -156 -69.5 -232.5t-152.5 -107.5t-213 -28.5t-249 4.5q-55 0 -90 26.5t-51 63.5t-14 81t22.5 79.5t59 59t96.5 21.5q61 -4 119.5 -4t104.5 6.5t76 22.5t36 47q-27 -18 -90.5 -30.5t-143.5 -12.5q-162 -4 -258 46t-146 138t-64.5 207t-10.5 254zM389.5 944 q-1.5 21 21.5 33t83.5 39.5t123.5 99.5q29 33 57.5 20.5t44 -45t9.5 -73.5t-45 -68q-23 -14 -57.5 -23t-71.5 -14.5t-72 -5.5t-55 6q-37 10 -38.5 31z" />
<glyph unicode="&#xff;" horiz-adv-x="1136" d="M0 645q2 86 36 136t84 70.5t107.5 13.5t105.5 -35.5t78.5 -76.5t28.5 -110q0 -37 -3 -99.5t5.5 -120.5t35 -102.5t83.5 -44.5q78 -2 115 53.5t39 159.5q0 51 -2 117t10 122t48 95t112 39q57 0 89 -30.5t48 -98t19 -177.5t1 -269v-66t-1 -89t-1 -83v-45 q-10 -156 -69.5 -232.5t-152.5 -107.5t-213 -28.5t-249 4.5q-55 0 -90 26.5t-51 63.5t-14 81t22.5 79.5t59 59t96.5 21.5q61 -4 119.5 -4t104.5 6.5t76 22.5t36 47q-27 -18 -90.5 -30.5t-143.5 -12.5q-162 -4 -258 46t-146 138t-64.5 207t-10.5 254zM428 993q0 37 21 62.5 t50 25.5t50.5 -25.5t21.5 -62.5t-21.5 -62.5t-50.5 -25.5t-50 25.5t-21 62.5zM590 993q0 37 21 62.5t50 25.5q31 0 51.5 -25.5t20.5 -62.5t-20.5 -62.5t-51.5 -25.5q-29 0 -50 25.5t-21 62.5z" />
<glyph unicode="&#x152;" horiz-adv-x="1902" d="M0 698q0 141 15.5 277.5t70.5 243t162.5 172t294.5 65.5q96 0 168.5 -16.5t126.5 -44.5q27 23 59.5 36t73.5 15q39 2 124 1t181 -1h187t145 4q59 2 102 -39t65.5 -105.5t24.5 -140t-18.5 -141.5t-63.5 -110t-110 -44h-396q-55 0 -71.5 -19.5t-14.5 -70.5h142q41 0 86 2 q31 0 50 -22.5t27.5 -58t7.5 -76.5t-12.5 -77t-32 -60.5t-48.5 -26.5q-20 -2 -50 -3t-62 -1t-61.5 1t-48.5 1q0 -6 -2 -18.5t-2 -25t5 -21.5t20 -9q45 0 99 -1t113.5 -1h121t120.5 2q68 4 112 -22.5t64.5 -67.5t19.5 -90t-22.5 -92t-63.5 -74t-101 -35q-51 -4 -142.5 -5 t-188.5 -1h-182t-124 2q-53 4 -91 25.5t-67 58.5q-61 -37 -132 -62.5t-149 -25.5q-111 0 -208 41t-168.5 127t-113.5 219t-42 315zM358 621q-2 -43 6.5 -94.5t29 -95.5t57.5 -73.5t94 -29.5q59 0 97 25.5t58.5 67.5t27.5 96t7 114q0 43 -6 88t-26.5 82t-56.5 60.5t-95 23.5 q-55 0 -92 -25.5t-58.5 -63.5t-31 -85t-11.5 -90z" />
<glyph unicode="&#x153;" horiz-adv-x="1896" d="M4 442q-2 102 26.5 173t76 118t107.5 74t123.5 39t124 15t107.5 3q88 0 173 -22.5t151 -71.5q78 53 175 73.5t196 20.5q90 0 182 -22.5t169 -71.5t127 -128t54 -193q0 -51 -54 -75t-122 -22t-128.5 29t-70.5 78q-6 35 -40.5 58.5t-80 32.5t-93.5 1t-85 -37h43 q51 0 88 -35t42 -78t-27.5 -78.5t-116.5 -37.5h-26.5t-24.5 2q18 -25 59 -34t86 -7t85 14t59 29q45 43 104 50t106.5 -14.5t69 -65.5t-5.5 -105q-23 -35 -70 -64t-107.5 -49.5t-126 -30.5t-126.5 -10q-215 0 -338 80q-66 -43 -145.5 -61.5t-171.5 -18.5q-121 0 -224.5 19.5 t-180.5 69.5t-122 135t-47 218zM365 389q-2 -72 45 -109.5t139 -37.5q72 0 124 33.5t52 105.5q0 80 -55.5 113.5t-124.5 33.5q-27 0 -57.5 -6t-57.5 -21.5t-45 -42t-20 -69.5z" />
<glyph unicode="&#x178;" horiz-adv-x="1167" d="M0 946v277q0 74 30.5 123t77 73.5t99.5 25.5t99 -21.5t76 -69.5t30 -117q-2 -68 0 -102.5t2 -73.5q0 -88 29.5 -139.5t64.5 -56.5t65.5 40t32.5 152q2 68 0 123t0 92q0 55 34 94t84 58.5t108.5 20.5t109.5 -17.5t85 -57.5t36 -96v-244q0 -244 -84 -400.5t-221 -223.5 v-134q0 -90 -33 -149.5t-82 -90t-105.5 -32.5t-106.5 24.5t-84 82t-36 137.5q-2 47 -3 84t-3 69q-82 35 -140.5 92.5t-95 130t-53 156.5t-16.5 170zM365 1579q0 37 21 62.5t50 25.5t50.5 -25.5t21.5 -62.5t-21.5 -62.5t-50.5 -25.5t-50 25.5t-21 62.5zM527 1579 q0 37 21 62.5t50 25.5q31 0 51.5 -25.5t20.5 -62.5t-20.5 -62.5t-51.5 -25.5q-29 0 -50 25.5t-21 62.5z" />
<glyph unicode="&#x2c6;" horiz-adv-x="749" d="M209 977q8 27 22.5 56.5t34 54t46 42t59.5 17.5q31 2 58.5 -15.5t50 -42t39 -53.5t24.5 -49q8 -25 -7.5 -44t-41 -30.5t-51 -8.5t-37.5 26q-16 29 -20.5 47t-14.5 33q-12 -12 -17.5 -39t-9.5 -39q-6 -18 -30.5 -23.5t-50 0.5t-44 23.5t-10.5 44.5z" />
<glyph unicode="&#x2dc;" horiz-adv-x="737" d="M210 966.5q-7 32.5 3 66.5t43 46q41 14 63.5 9t40 -14t37 -14t54.5 11q27 12 50 -4t34.5 -45t4 -60.5t-41.5 -50.5q-27 -14 -50.5 -10t-48 11.5t-51 10.5t-57.5 -12q-31 -16 -52.5 3.5t-28.5 52z" />
<glyph unicode="&#x2000;" horiz-adv-x="866" />
<glyph unicode="&#x2001;" horiz-adv-x="1733" />
<glyph unicode="&#x2002;" horiz-adv-x="866" />
<glyph unicode="&#x2003;" horiz-adv-x="1733" />
<glyph unicode="&#x2004;" horiz-adv-x="577" />
<glyph unicode="&#x2005;" horiz-adv-x="433" />
<glyph unicode="&#x2006;" horiz-adv-x="288" />
<glyph unicode="&#x2007;" horiz-adv-x="288" />
<glyph unicode="&#x2008;" horiz-adv-x="216" />
<glyph unicode="&#x2009;" horiz-adv-x="346" />
<glyph unicode="&#x200a;" horiz-adv-x="96" />
<glyph unicode="&#x2010;" horiz-adv-x="905" d="M102 478q2 50 37 93t109 43h321q43 0 73 -20.5t45 -51t16.5 -67.5t-13 -67.5t-43.5 -51t-72 -20.5q-66 0 -115.5 1t-92.5 2t-80 2t-74 1q-55 0 -84 43t-27 93z" />
<glyph unicode="&#x2011;" horiz-adv-x="905" d="M102 478q2 50 37 93t109 43h321q43 0 73 -20.5t45 -51t16.5 -67.5t-13 -67.5t-43.5 -51t-72 -20.5q-66 0 -115.5 1t-92.5 2t-80 2t-74 1q-55 0 -84 43t-27 93z" />
<glyph unicode="&#x2012;" horiz-adv-x="905" d="M102 478q2 50 37 93t109 43h321q43 0 73 -20.5t45 -51t16.5 -67.5t-13 -67.5t-43.5 -51t-72 -20.5q-66 0 -115.5 1t-92.5 2t-80 2t-74 1q-55 0 -84 43t-27 93z" />
<glyph unicode="&#x2013;" horiz-adv-x="1316" d="M102 478q2 50 37 93t109 43h729q43 0 72.5 -20.5t45 -51t16.5 -67.5t-13.5 -67.5t-43 -51t-71.5 -20.5h-110.5t-144.5 1t-158 2t-151.5 2t-125.5 1h-80q-55 0 -84 43t-27 93z" />
<glyph unicode="&#x2014;" horiz-adv-x="1648" d="M100 478q2 50 37 93t109 43h1065q43 0 72.5 -20.5t45 -51t16.5 -67.5t-13.5 -67.5t-43 -51t-71.5 -20.5h-135t-207 1t-239 2t-232.5 2t-188 1h-104.5q-55 0 -84 43t-27 93z" />
<glyph unicode="&#x202f;" horiz-adv-x="346" />
<glyph unicode="&#x205f;" horiz-adv-x="433" />
<glyph unicode="&#x20ac;" horiz-adv-x="1329" d="M0 473q0 35 41 65.5t127 34.5q-2 10 -2 20.5t-2 20.5h-25q-68 0 -103.5 30t-35.5 64.5t40 65.5t126 35q20 244 112.5 389t217.5 204.5t262 39t247.5 -106.5t174.5 -233t41 -342q-6 -53 -36 -85t-72 -48.5t-89 -17.5t-86 10.5t-64.5 33t-23.5 49.5q8 164 -131 164 q-78 0 -117 -57q74 -4 111 -36t36 -67.5t-40 -65.5t-119 -30h-29q-2 -10 -2 -18v-19h23q80 0 121.5 -30.5t44 -67.5t-35.5 -67.5t-118 -32.5q29 -57 72 -76.5t84 -6.5t71.5 56t34.5 111q2 31 27.5 50t63.5 25.5t82 2t81 -20.5t61.5 -44t22.5 -64q-4 -57 -30.5 -130 t-86 -135.5t-154 -104.5t-231.5 -38q-180 6 -304 105.5t-181 273.5h-68q-68 0 -103.5 29.5t-35.5 64.5z" />
<glyph unicode="&#x25fc;" horiz-adv-x="870" d="M0 0v870h870v-870h-870z" />
</font>
</defs>
</svg>
